<svg fill="none" height="265" viewBox="0 0 243 265" width="243" xmlns="http://www.w3.org/2000/svg" xmlns:xlink="http://www.w3.org/1999/xlink"><radialGradient id="a" cx="0" cy="0" gradientTransform="matrix(150.43014296 -102.18616891 102.21145486 150.46736688 60.2941 34.5587)" gradientUnits="userSpaceOnUse" r="1"><stop offset=".15" stop-color="#fff"/><stop offset=".9" stop-color="#dcdcdc"/></radialGradient><linearGradient id="b" gradientUnits="userSpaceOnUse" x1="31.409" x2="168.662" y1="44.9714" y2="164.558"><stop offset="0" stop-color="#fff"/><stop offset="1" stop-color="#fff" stop-opacity="0"/></linearGradient><linearGradient id="c"><stop offset="0" stop-color="#f03a2f"/><stop offset=".2" stop-color="#ed392e"/><stop offset=".34" stop-color="#e4372d"/><stop offset=".46" stop-color="#d5332a"/><stop offset=".56" stop-color="#bf2e25"/><stop offset=".66" stop-color="#a42820"/><stop offset=".76" stop-color="#811f19"/><stop offset=".85" stop-color="#581511"/><stop offset=".93" stop-color="#2a0a08"/><stop offset="1"/></linearGradient><radialGradient id="d" cx="0" cy="0" gradientTransform="matrix(29.09082634 -19.76119969 19.7661445 29.09810569 117.884 127.35)" gradientUnits="userSpaceOnUse" r="1" xlink:href="#c"/><radialGradient id="e" cx="0" cy="0" gradientTransform="matrix(56.3721 0 0 58.914 -4309.62 5362.1)" gradientUnits="userSpaceOnUse" r="1"><stop offset="0" stop-color="#f03a2f"/><stop offset=".2" stop-color="#ed392e"/><stop offset=".34" stop-color="#e4372d"/><stop offset=".46" stop-color="#d5332a"/><stop offset=".56" stop-color="#bf2e25"/><stop offset=".66" stop-color="#a42820"/><stop offset=".76" stop-color="#811f19"/><stop offset=".85" stop-color="#581511"/><stop offset=".93" stop-color="#2a0a08"/><stop offset="1" stop-color="#d81104"/></radialGradient><linearGradient id="f"><stop offset="0" stop-color="#f03a2f"/><stop offset=".21" stop-color="#ed3a30"/><stop offset=".36" stop-color="#e43c32"/><stop offset=".48" stop-color="#d53e35"/><stop offset=".59" stop-color="#c04139"/><stop offset=".7" stop-color="#a4453f"/><stop offset=".71" stop-color="#a14540"/></linearGradient><linearGradient id="g" gradientUnits="userSpaceOnUse" x1="18.137" x2="23.5384" xlink:href="#f" y1="72.7726" y2="106.699"/><radialGradient id="h" cx="0" cy="0" gradientTransform="matrix(-45.68764988 31.03530859 -32.92995721 -48.47679704 -9394.28 42083.2)" gradientUnits="userSpaceOnUse" r="1" xlink:href="#c"/><linearGradient id="i" gradientUnits="userSpaceOnUse" x1="2335.05" x2="2335.05" xlink:href="#f" y1="2325.75" y2="2736.4"/><path d="m125.066 5.78668 115.505 170.19132c1.833 2.714 2.518 6.044 1.904 9.262-.614 3.217-2.477 6.06-5.181 7.906l-102.166 69.443c-2.713 1.838-6.043 2.523-9.261 1.905-3.217-.619-6.057-2.491-7.895-5.204l-115.52448-170.2689c-.91028-1.3454-1.546196-2.8574-1.871281-4.4493s-.332943-3.2324-.023123-4.8273c.309819-1.595.931224-3.1131 1.828574-4.4672s2.053-2.5176 3.40067-3.4239l102.16564-69.4424c2.717-1.823757 6.047-2.4926825 9.257-1.859625 3.211.633055 6.038 2.516245 7.861 5.235305z" fill="url(#a)"/><path d="m125.066 5.78668 115.505 170.19132c1.833 2.714 2.518 6.044 1.904 9.262-.614 3.217-2.477 6.06-5.181 7.906l-102.166 69.443c-2.713 1.838-6.043 2.523-9.261 1.905-3.217-.619-6.057-2.491-7.895-5.204l-115.52448-170.2689c-.91028-1.3454-1.546196-2.8574-1.871281-4.4493s-.332943-3.2324-.023123-4.8273c.309819-1.595.931224-3.1131 1.828574-4.4672s2.053-2.5176 3.40067-3.4239l102.16564-69.4424c2.717-1.823757 6.047-2.4926825 9.257-1.859625 3.211.633055 6.038 2.516245 7.861 5.235305z" stroke="#fff" stroke-miterlimit="10" stroke-width=".32"/><path d="m125.066 5.78667 35.276 52.08183c-44.683 66.5295-63.6124 124.9965-71.5543 158.5985l-86.33961-127.3109c-.93148-1.3501-1.58468-2.8725-1.921416-4.4782s-.350253-3.2624-.039762-4.8734.938758-3.1439 1.848088-4.5091 2.08148-2.5353 3.44793-3.442l102.16607-69.4424c2.717-1.823757 6.047-2.4926825 9.257-1.859625 3.21.633055 6.038 2.516245 7.86 5.235295z" fill="url(#b)"/><path d="m125.066 5.78667 35.276 52.08183c-44.683 66.5295-63.6124 124.9965-71.5543 158.5985l-86.33961-127.3109c-.93148-1.3501-1.58468-2.8725-1.921416-4.4782s-.350253-3.2624-.039762-4.8734.938758-3.1439 1.848088-4.5091 2.08148-2.5353 3.44793-3.442l102.16607-69.4424c2.717-1.823757 6.047-2.4926825 9.257-1.859625 3.21.633055 6.038 2.516245 7.86 5.235295z" fill="url(#b)"/><g clip-rule="evenodd" fill-rule="evenodd"><path d="m119.399 109.68c2.477-1.674 5.516-2.299 8.452-1.739s5.532 2.26 7.22 4.729c2.051 3.488 2.693 7.628 1.792 11.574-1.657 10.108-3.296 15.547-3.2 26.253-8.336-3.033-16.948-5.243-25.714-6.597-3.908-.77-7.403-2.937-9.8315-6.096-1.4416-2.314-1.998-5.073-1.5667-7.766.4313-2.694 1.8213-5.14 3.9132-6.888 2.093-1.748 4.746-2.681 7.471-2.625 2.726.056 5.339 1.096 7.358 2.928-1.007-2.417-1.148-5.109-.4-7.619.748-2.509 2.34-4.683 4.506-6.154z" fill="#fff"/><path d="m118.936 109.005c2.476-1.679 5.516-2.307 8.454-1.747 2.938.561 5.533 2.264 7.218 4.737 2.057 3.486 2.699 7.628 1.793 11.574-1.658 10.127-3.297 15.566-3.2 26.253-8.349-3.032-16.975-5.235-25.754-6.578-3.909-.755-7.406-2.917-9.8307-6.076-1.5788-2.315-2.2416-5.135-1.8598-7.912.3817-2.777 1.7808-5.312 3.9258-7.115 2.1447-1.803 4.8827-2.744 7.6817-2.64 2.799.103 5.46 1.244 7.466 3.2-.994-2.407-1.128-5.084-.38-7.579.748-2.494 2.332-4.655 4.486-6.117z" fill="url(#d)"/><path d="m30.6496 98.6851c.6783-.4602 1.5109-.6333 2.3163-.4815.8053.1518 1.5179.6161 1.9824 1.2917.5519.9567.724 2.0857.4819 3.1637-.5494 2.393-.8466 4.836-.8867 7.291-2.2803-.88-4.6442-1.527-7.0552-1.929-1.066-.206-2.0194-.796-2.6794-1.659-.4084-.634-.572-1.395-.4603-2.142.1117-.746.491-1.426 1.0672-1.913.5761-.486 1.3097-.746 2.0636-.732.7538.015 1.4765.305 2.0329.814-.2615-.655-.2913-1.379-.0844-2.053.2069-.6737.638-1.2563 1.2217-1.6509z" fill="#fff"/></g><path d="m20.8379 92.7245 2.2939 4.6874-2.8915 1.9289-9.4262-20.4469 3.8553-2.5848 15.4791 16.2804-2.9108 1.9289-3.5083-3.8579zm-5.2818-10.9179 3.8554 7.9473 2.0625-1.4081z" fill="#fff"/><path clip-rule="evenodd" d="m30.3027 98.1646c.3335-.2299.7092-.3914 1.1055-.4751.3962-.0838.8051-.0881 1.203-.0127.3979.0753.777.2288 1.1153.4516.3382.2228.6291.5104.8556.8464.5912.9775.7714 2.1492.5012 3.2602-.5416 2.361-.8387 4.772-.8868 7.195-2.2851-.835-4.6489-1.436-7.0552-1.794-1.0681-.213-2.0214-.81-2.6794-1.678-.4397-.633-.6274-1.406-.5261-2.17.1013-.763.4841-1.461 1.0734-1.957.5893-.495 1.3424-.752 2.1114-.72.769.031 1.4984.35 2.0448.892-.2934-.671-.3402-1.425-.132-2.127.2081-.7024.6577-1.3086 1.2693-1.7114z" fill="url(#e)" fill-rule="evenodd"/><path d="m20.4909 92.223 2.1976 4.6681-2.8915 1.929-9.3299-20.447 3.8553-2.5848 15.5369 16.2804-2.9107 1.929-3.5084-3.8579zm-5.2817-10.9179 3.8553 7.928 2.1397-1.3888z" fill="url(#g)"/><path clip-rule="evenodd" d="m211.753 165.446c-.678.458-1.509.627-2.311.472-.803-.156-1.511-.624-1.969-1.301-.567-.951-.747-2.084-.501-3.163.542-2.355.839-4.76.887-7.176 2.288.823 4.651 1.424 7.055 1.794 1.07.21 2.028.799 2.699 1.659.425.635.602 1.406.494 2.164-.107.757-.49 1.449-1.075 1.941-.586.493-1.332.752-2.096.727-.765-.024-1.493-.33-2.046-.859.264.66.296 1.391.089 2.071-.207.681-.639 1.27-1.226 1.671z" fill="#fff" fill-rule="evenodd"/><path d="m221.564 171.388-2.178-4.688 2.872-1.929 9.35 20.409-3.856 2.584-15.537-16.261 2.911-1.929 3.508 3.858zm5.282 10.917-3.855-7.947-2.043 1.408z" fill="#fff"/><path clip-rule="evenodd" d="m212.042 165.89c-.678.46-1.511.633-2.316.482-.806-.152-1.518-.616-1.983-1.292-.552-.957-.724-2.086-.482-3.164.556-2.366.866-4.784.926-7.214 2.285.833 4.649 1.434 7.055 1.794 1.03.242 1.943.835 2.583 1.678.343.636.454 1.371.314 2.08s-.522 1.346-1.082 1.803c-.559.457-1.26.704-1.982.7-.722-.005-1.419-.261-1.973-.725.306.665.368 1.417.174 2.123s-.631 1.32-1.234 1.735z" fill="url(#h)" fill-rule="evenodd"/><path d="m221.873 171.812-2.121-4.668 2.873-1.929 9.349 20.485-3.856 2.585-15.421-16.28 2.911-1.929 3.508 3.858zm5.282 10.918-3.856-7.928-2.043 1.389z" fill="url(#i)"/></svg>