<svg fill="none" height="286" viewBox="0 0 255 286" width="255" xmlns="http://www.w3.org/2000/svg" xmlns:xlink="http://www.w3.org/1999/xlink"><radialGradient id="a" cx="0" cy="0" gradientTransform="matrix(152.37300388 98.68206553 -98.64020894 152.30837396 193.281 48.5715)" gradientUnits="userSpaceOnUse" r="1"><stop offset=".15" stop-color="#fff"/><stop offset=".9" stop-color="#dcdcdc"/></radialGradient><linearGradient id="b" gradientUnits="userSpaceOnUse" x1="172.491" x2="115.801" y1="26.054" y2="198.569"><stop offset="0" stop-color="#fff"/><stop offset="1" stop-color="#fff" stop-opacity="0"/></linearGradient><linearGradient id="c"><stop offset="0" stop-color="#545454"/><stop offset=".21" stop-color="#515151"/><stop offset=".35" stop-color="#484848"/><stop offset=".47" stop-color="#393939"/><stop offset=".58" stop-color="#242424"/><stop offset=".68" stop-color="#080808"/><stop offset=".71"/></linearGradient><radialGradient id="d" cx="0" cy="0" gradientTransform="matrix(28.72036016 18.60030577 -18.59242369 28.70818959 129.437 137.791)" gradientUnits="userSpaceOnUse" r="1" xlink:href="#c"/><linearGradient id="e" gradientUnits="userSpaceOnUse" x1="-296.903" x2="-605.947" xlink:href="#c" y1="1050.25" y2="1330.15"/><radialGradient id="f" cx="0" cy="0" gradientTransform="matrix(61.61889993 6.14550701 -7.21958086 72.38827156 -3004.7 5236.59)" gradientUnits="userSpaceOnUse" r="1" xlink:href="#c"/><linearGradient id="g" gradientUnits="userSpaceOnUse" x1="-835.092" x2="-1143.88" xlink:href="#c" y1="3543.77" y2="3823.44"/><radialGradient id="h" cx="0" cy="0" gradientTransform="matrix(-52.16284719 -33.78312317 39.65954087 -61.23633269 -49009.4 13265.4)" gradientUnits="userSpaceOnUse" r="1" xlink:href="#c"/><clipPath id="i"><path d="m0 0h228.933v264.099h-228.933z" transform="matrix(.99506335 .09924177 -.09924177 .99506335 26.2096 0)"/></clipPath><g clip-path="url(#i)"><path d="m244.933 96.889-111.664 172.181c-.88 1.357-2.018 2.527-3.35 3.444-1.333.917-2.833 1.563-4.415 1.9-1.582.338-3.215.361-4.806.068-1.591-.294-3.108-.897-4.466-1.776l-103.5703-67.041c-2.732-1.789-4.64309-4.587-5.31443-7.78-.67134-3.194-.04815-6.524 1.73296-9.259l111.66277-172.1617c1.777-2.7444 4.572-4.671 7.771-5.356 3.199-.6851 6.539-.0725 9.286 1.703l103.571 67.0413c2.728 1.7915 4.635 4.5902 5.303 7.7834.667 3.1931.041 6.5204-1.741 9.253z" fill="url(#a)"/><path d="m244.933 96.889-111.664 172.181c-.88 1.357-2.018 2.527-3.35 3.444-1.333.917-2.833 1.563-4.415 1.9-1.582.338-3.215.361-4.806.068-1.591-.294-3.108-.897-4.466-1.776l-103.5703-67.041c-2.732-1.789-4.64309-4.587-5.31443-7.78-.67134-3.194-.04815-6.524 1.73296-9.259l111.66277-172.1617c1.777-2.7444 4.572-4.671 7.771-5.356 3.199-.6851 6.539-.0725 9.286 1.703l103.571 67.0413c2.728 1.7915 4.635 4.5902 5.303 7.7834.667 3.1931.041 6.5204-1.741 9.253z" stroke="#fff" stroke-miterlimit="10" stroke-width=".32"/><path d="m244.933 96.8887-34.112 52.6523c-78.5-15.271-139.6222-10.059-173.5655-4.282l83.4865-128.795c1.778-2.7444 4.573-4.671 7.772-5.356s6.539-.0725 9.286 1.703l103.571 67.0413c2.728 1.7915 4.635 4.5903 5.302 7.7834.668 3.1932.042 6.5204-1.74 9.253z" fill="url(#b)"/><path d="m244.933 96.8887-34.112 52.6523c-78.5-15.271-139.6222-10.059-173.5655-4.282l83.4865-128.795c1.778-2.7444 4.573-4.671 7.772-5.356s6.539-.0725 9.286 1.703l103.571 67.0413c2.728 1.7915 4.635 4.5903 5.302 7.7834.668 3.1932.042 6.5204-1.74 9.253z" fill="url(#b)"/><path clip-rule="evenodd" d="m108.967 150.439c-2.444-1.526-4.189-3.952-4.858-6.753s-.208-5.752 1.283-8.216c.921-1.471 2.154-2.723 3.611-3.666 1.458-.943 3.105-1.556 4.825-1.794 9.357-2.082 18.446-3.804 26.866-8.319-.4 7.692.743 16.214 3.047 27.635.978 3.386.615 7.018-1.012 10.144-1.641 2.392-4.161 4.04-7.012 4.584-2.851.545-5.802-.057-8.211-1.676-1.665-1.069-3.021-2.556-3.932-4.312s-1.345-3.72-1.26-5.696c-2.373 3.242-3.559 9.309-4.46 16.023-1.117-1.724-2.587-3.192-4.313-4.307s-3.669-1.852-5.7-2.162c6.196-3.943 10.542-7.569 12.487-10.777-1.787.897-3.78 1.305-5.776 1.18-1.996-.124-3.924-.776-5.585-1.888z" fill="#fff" fill-rule="evenodd"/><path clip-rule="evenodd" d="m109.355 149.84c-2.46-1.536-4.215-3.979-4.882-6.8-.668-2.821-.195-5.791 1.317-8.265.933-1.45 2.17-2.68 3.624-3.606 1.455-.926 3.094-1.526 4.803-1.758 9.357-2.082 18.446-3.805 26.885-8.317-.419 7.69.723 16.212 2.932 27.624.979 3.379.617 7.005-1.01 10.124-1.631 2.4-4.148 4.054-6.999 4.6-2.851.545-5.802-.062-8.205-1.69-1.672-1.059-3.035-2.541-3.95-4.295-.916-1.755-1.351-3.72-1.263-5.696-2.373 3.243-3.559 9.31-4.461 16.024-1.115-1.727-2.584-3.198-4.309-4.317-1.726-1.118-3.669-1.858-5.702-2.171 6.195-3.925 10.543-7.57 12.486-10.759-1.774.881-3.749 1.28-5.726 1.158-1.978-.123-3.888-.763-5.54-1.856z" fill="url(#d)" fill-rule="evenodd"/><path d="m124.391 34.5722-3.365 3.8781-2.927-1.8769 15.189-16.5385 3.851 2.5102-8.987 20.4818-2.943-1.9171 2.111-4.6798zm7.987-9.0999-5.789 6.6517 2.096 1.2915z" fill="#fff"/><path clip-rule="evenodd" d="m111.336 52.7924c-.708-.4516-1.208-1.1647-1.391-1.9834s-.034-1.6765.414-2.3857c.27-.4202.627-.7768 1.048-1.0452.421-.2685.895-.4422 1.39-.5093 2.699-.4428 5.325-1.2541 7.804-2.4111-.042 2.694.242 5.3832.845 8.0093.279.9843.174 2.0376-.294 2.9474-.235.3449-.535.6401-.885.8687-.349.2287-.74.3863-1.15.4639s-.831.0736-1.24-.0118c-.409-.0853-.796-.2503-1.141-.4855-.499-.3041-.908-.7346-1.186-1.2478-.279-.5133-.416-1.0909-.399-1.6744-.753 1.4401-1.188 3.0247-1.276 4.6471-.324-.5004-.751-.9262-1.253-1.2494-.501-.3233-1.065-.5365-1.655-.6256 1.407-.7908 2.638-1.8581 3.621-3.1375-.509.2598-1.078.3809-1.649.3511s-1.124-.2094-1.603-.5208z" fill="#fff" fill-rule="evenodd"/><path d="m124.644 34.1721-3.438 3.8322-2.926-1.8961 15.188-16.5194 3.853 2.4911-8.98 20.5985-2.89-1.8539 2.112-4.6989zm7.985-9.0808-5.787 6.6326 2.09 1.3488z" fill="url(#e)"/><path clip-rule="evenodd" d="m111.586 52.4115c-.355-.219-.664-.5061-.909-.8447s-.42-.7221-.516-1.1285-.111-.8277-.044-1.2399c.067-.4121.215-.8069.436-1.1618.269-.4201.626-.7768 1.047-1.0452s.895-.4422 1.39-.5093c2.692-.4486 5.311-1.2603 7.785-2.4129-.033 2.6795.245 5.3537.83 7.9691.28.9776.176 2.0253-.292 2.9282-.475.696-1.206 1.1763-2.033 1.3364-.828.16-1.685-.0132-2.385-.482-.481-.3109-.873-.7411-1.138-1.2486-.264-.5075-.393-1.0748-.373-1.6467-.752 1.44-1.187 3.0246-1.275 4.647-.327-.4996-.754-.9259-1.254-1.252-.501-.3261-1.063-.5447-1.652-.6421 1.408-.7796 2.64-1.8412 3.618-3.1184-.507.2542-1.07.3739-1.637.3479-.566-.026-1.116-.197-1.598-.4965z" fill="url(#f)" fill-rule="evenodd"/><path d="m129.841 249.902 3.458-3.831 2.906 1.894-15.188 16.52-3.85-2.51 8.92-20.585 2.942 1.917-2.113 4.699zm-7.985 9.08 5.79-6.651-2.073-1.328z" fill="#fff"/><path clip-rule="evenodd" d="m143.521 231.434c.715.446 1.225 1.156 1.418 1.975.194.82.056 1.682-.384 2.4-.269.42-.627.777-1.047 1.045-.421.269-.896.443-1.39.51-2.701.439-5.327 1.25-7.804 2.411.042-2.694-.242-5.384-.845-8.01-.29-.983-.184-2.04.293-2.947.474-.691 1.202-1.167 2.026-1.324s1.676.018 2.372.487c.486.305.882.734 1.147 1.243.266.509.391 1.079.363 1.652.769-1.434 1.212-3.02 1.295-4.645.324.5.751.926 1.252 1.249.502.324 1.066.537 1.656.626-1.407.791-2.638 1.858-3.621 3.138.513-.26 1.086-.38 1.66-.346.575.033 1.13.218 1.609.536z" fill="#fff" fill-rule="evenodd"/><path d="m129.681 250.156 3.496-3.827 2.925 1.896-15.188 16.52-3.931-2.48 8.922-20.604 2.944 1.898-2.113 4.699zm-7.988 9.1 5.79-6.652-2.09-1.349z" fill="url(#g)"/><path clip-rule="evenodd" d="m143.361 231.689c.71.449 1.217 1.159 1.41 1.976.193.818.058 1.679-.377 2.399-.273.42-.634.776-1.058 1.044s-.901.441-1.398.508c-2.695.44-5.315 1.252-7.785 2.413.034-2.695-.256-5.385-.864-8.011-.281-.978-.176-2.025.292-2.928.474-.696 1.205-1.177 2.033-1.337.827-.16 1.684.013 2.385.482.483.308.877.738 1.142 1.246s.392 1.077.368 1.65c.76-1.438 1.202-3.022 1.295-4.646.325.502.751.929 1.252 1.255.501.327 1.064.544 1.654.64-1.411.776-2.643 1.838-3.619 3.118.513-.26 1.086-.379 1.661-.346.574.034 1.129.219 1.609.537z" fill="url(#h)" fill-rule="evenodd"/></g></svg>