<svg fill="none" height="50" viewBox="0 0 70 50" width="70" xmlns="http://www.w3.org/2000/svg" xmlns:xlink="http://www.w3.org/1999/xlink"><radialGradient id="a" cx="0" cy="0" gradientTransform="matrix(18.39108653 -8.48817799 8.48817799 18.39108653 29.5458 20.3138)" gradientUnits="userSpaceOnUse" r="1"><stop offset=".19" stop-color="#9bcc50"/><stop offset=".87" stop-color="#006e41"/></radialGradient><linearGradient id="b"><stop offset="0" stop-color="#dcdcdc"/><stop offset=".29" stop-color="#b6b6b6"/><stop offset="1" stop-color="#a1a1a1"/></linearGradient><linearGradient id="c" gradientUnits="userSpaceOnUse" x1="65.9311" x2="68.2425" xlink:href="#b" y1="11.1592" y2="10.0924"/><linearGradient id="d" gradientUnits="userSpaceOnUse" x1="642.606" x2="1052.87" xlink:href="#b" y1="801.643" y2="801.643"/><linearGradient id="e" gradientUnits="userSpaceOnUse" x1="-112.86" x2="248.525" xlink:href="#b" y1="521.861" y2="521.861"/><linearGradient id="f"><stop offset=".19" stop-color="#9bcc50"/><stop offset=".87" stop-color="#007947"/></linearGradient><radialGradient id="g" cx="0" cy="0" gradientTransform="matrix(29.99363091 -13.8431885 13.8431885 29.99363091 28.0576 24.8863)" gradientUnits="userSpaceOnUse" r="1" xlink:href="#f"/><radialGradient id="h" cx="0" cy="0" gradientTransform="matrix(796.116 0 0 520.318 1027.54 728.401)" gradientUnits="userSpaceOnUse" r="1" xlink:href="#f"/><linearGradient id="i"><stop offset=".19" stop-color="#569b54"/><stop offset=".87" stop-color="#135e3b"/></linearGradient><radialGradient id="j" cx="0" cy="0" gradientTransform="matrix(15.77026091 -7.27856841 7.27856841 15.77026091 31.1166 16.8294)" gradientUnits="userSpaceOnUse" r="1" xlink:href="#i"/><radialGradient id="k" cx="0" cy="0" gradientTransform="matrix(456.349 0 0 297.663 786.746 567.408)" gradientUnits="userSpaceOnUse" r="1" xlink:href="#i"/><radialGradient id="l" cx="0" cy="0" gradientTransform="matrix(1075.02 0 0 669.91 431.821 530.764)" gradientUnits="userSpaceOnUse" r="1" xlink:href="#f"/><linearGradient id="m" gradientUnits="userSpaceOnUse" x1="9.7617" x2="28.5931" y1="33.0546" y2="22.8178"><stop offset="0" stop-color="#44e2f0"/><stop offset="1" stop-color="#44e2f0" stop-opacity="0"/></linearGradient><linearGradient id="n" gradientUnits="userSpaceOnUse" x1="11.1337" x2="31.3357" y1="31.9136" y2="21.2981"><stop offset="0" stop-color="#dfe22a"/><stop offset="1" stop-color="#fff" stop-opacity="0"/></linearGradient><clipPath id="o"><path d="m0 0h69.46v49.05h-69.46z"/></clipPath><g clip-path="url(#o)"><path d="m69.22 12.5299c.1843.6942.2618 1.4125.23 2.13-.1 3.11-2 6.81-5.2 10.62-4.4004 4.942-9.5458 9.1662-15.25 12.52-1.8933 1.16-3.8933 2.27-6 3.33-3.815 1.9628-7.7729 3.6343-11.84 5-6.57 2.14-12.67 3.14-17.49 2.87-4.35-.21-7.67-1.46-9.35-3.76l-3.64-7.55.32-.23c2 2 5.55 3 10 3 6.3231-.1879 12.5671-1.4597 18.46-3.76 3.2615-1.1956 6.4474-2.5881 9.54-4.17 1.72-.88 3.37-1.78 5-2.72 5.4915-3.1702 10.5161-7.0876 14.93-11.64 2.6177-2.5969 4.6617-5.714 6-9.14999.3625-1.0528.5549-2.15664.57-3.27l.5-.09s2.59 5.39999 2.72 5.64999c.2067.3891.3742.7978.5 1.22z" fill="url(#a)"/><path d="m69.22 12.5299c.1843.6942.2618 1.4125.23 2.13l-3.1-6.28999-1.46.63c.3625-1.0528.5549-2.15664.57-3.27l.54-.07s2.59 5.39999 2.72 5.64999c.2067.3891.3742.7978.5 1.22z" fill="url(#c)"/><path d="m61.23 18.78 3 6.5c-4.3943 4.9403-9.5328 9.1645-15.23 12.52l-3.21-6.56-1.79-1.43c6.1-3.62 10.2-6.58 13.91-10.56z" fill="url(#d)"/><path d="m27.93 39.5501 3.27 6.54c-6.61 2.18-12.71 3.18-17.53 2.91l-3.05-6.64 3.26-2c5.16 0 6.88-.54 13.73-3z" fill="url(#e)"/><path d="m65.67 4.68002c.5499 1.10168.7885 2.33264.69 3.56-.19 3.11998-2.1 6.79998-5.36 10.59998-4.4048 4.8882-9.5347 9.0703-15.21 12.4-1.86 1.13-3.79 2.22-5.79 3.25-3.8395 1.9693-7.8246 3.6409-11.92 5-6.56 2.16-12.62 3.15-17.41 2.9-4-.2-7.16-1.28-9-3.25-.3921-.4181-.728248-.8853-1-1.39-1-2.07-.89-4.62.29-7.43 1.53928-3.2862 3.66391-6.2647 6.27-8.79 4.1911-4.1606 8.8957-7.7697 14-10.74 1.66-.99998 3.39-1.93998 5.19-2.84998 3.0228-1.5469 6.135-2.91265 9.32-4.09 5.2173-2.00999 10.6905-3.278996 16.26-3.7700026 4-.2700004 7.49.1399996 10 1.2800026 1.5703.64917 2.8672 1.82237 3.67 3.32z" fill="url(#g)"/><path d="m54.14 9.92005c2.58 5.06005-4.83 14.00005-16.54 20.00005s-23.3 6.69-25.87 1.63 4.83-14 16.54-20c11.71-6.00005 23.3-6.69005 25.87-1.63005z" fill="url(#h)"/><g fill="#fff"><path d="m9.37 32.7101c.21138.419.48069.8061.8 1.15l-8.51 5.27c-.39211-.4181-.72825-.8853-1.000002-1.39-1-2.07-.89-4.62.29-7.43l8.310002-2.71c-.32511.8156-.4829 1.6883-.46401 2.5662.0189.8778.2141 1.7429.57401 2.5438z"/><path d="m28.92 34.6499-.92 4.83c-6.56 2.16-12.62 3.15-17.41 2.9l5.7-6c4.2821.2413 8.5705-.3461 12.63-1.73z"/><path d="m61 18.8401c-4.4048 4.8881-9.5347 9.0703-15.21 12.4l-3.42-2.72c4.2958-2.5315 8.1248-5.7821 11.32-9.61z"/><path d="m65.67 4.68011c.5499 1.10168.7885 2.33264.69 3.56l-9.29 3.05999c.0241-.8937-.1716-1.77963-.57-2.57999-.5761-1.08821-1.4879-1.96147-2.6-2.49l8.1-4.87c1.5703.64917 2.8672 1.82237 3.67 3.32z"/><path d="m52 .0800781-4.84 4.9200019c-4.1365.16106-8.2224.96746-12.11 2.39l.7-3.55c5.2146-2.00566 10.6844-3.271285 16.25-3.7600019z"/><path d="m23.68 12.79c-3.6242 2.1586-6.9436 4.7919-9.87 7.83l-6.55001.9c4.19111-4.1606 8.89571-7.7697 14.00001-10.74z"/></g><path d="m51.52 11.9401c2.18 4.29-4.26 11.93-14.38 17.06s-20.09 5.88-22.27 1.6 4.26-11.93 14.38-17.08c10.12-5.14999 20.09-5.85999 22.27-1.58z" stroke="#fff" stroke-dasharray="2.66 4.75" stroke-miterlimit="10" stroke-width=".95"/><path d="m54.14 9.92013c.1104.20767.2008.42527.27.64997-3.11-4.34997-14.21-3.39997-25.41 2.33-11.2 5.73-18.58 14.1-16.92 19.19-.1296-.1852-.2466-.3789-.35-.58-2.58-5.07 4.82-14 16.54-20 11.72-5.99997 23.29-6.64997 25.87-1.58997z" fill="url(#j)"/><path d="m36.71 28.1299c-8.86 4.52-17.63 5.07-19.58 1.23-.2674-.5296-.4013-1.1167-.39-1.71 0-3.92 5.25-9.5 12.91-13.4s15.25-4.83996 18.43-2.55c.4831.3337.8778.7799 1.15 1.3 1.95 3.86-3.65 10.62-12.52 15.13z" fill="url(#k)"/><path d="m35.91 26.5599c-8.65 4.44-17.21 4.94-19.12 1.2l-.05-.11c0-3.92 5.25-9.5 12.91-13.4s15.25-4.83996 18.43-2.55l.05.11c1.87 3.74-3.56 10.35-12.22 14.75z" fill="url(#l)"/><path d="m66.36 8.23999c-.1253 1.58403-.5459 3.13061-1.24 4.56001-.6865 1.4319-1.5033 2.7977-2.44 4.08-1.9146 2.534-4.0898 4.8601-6.49 6.94-2.3837 2.0944-4.9061 4.0255-7.55 5.78-2.62 1.8-5.45 3.24-8.2 4.82-5.6275 2.9375-11.5866 5.1902-17.75 6.71-3.0855.7539-6.237 1.206-9.41 1.35-3.1787.2152-6.36227-.3405-9.28-1.62 2.93151 1.2233 6.115 1.7207 9.28 1.45 3.1556-.1598 6.2876-.6321 9.35-1.41 6.134-1.5485 12.0598-3.8281 17.65-6.79 2.75-1.56 5.58-3 8.2-4.75 2.6323-1.7319 5.1447-3.6396 7.52-5.71 2.3972-2.0603 4.5755-4.3625 6.5-6.87.9621-1.2484 1.7994-2.5882 2.5-4 .7364-1.4137 1.1979-2.95427 1.36-4.54001z" fill="#fff"/><path d="m37.25 25.84c-.43.24-.88.49-1.34.72-8.66 4.44-17.21 4.94-19.12 1.2l-.05-.11c0-2 1.32-4.34 3.59-6.71 2.5808-2.5943 5.558-4.7614 8.82-6.42-.08 4.1 1.27 9.37 8.1 11.32z" fill="url(#m)"/><path d="m37.25 25.84c-.43.24-.88.49-1.34.72-8.66 4.44-17.21 4.94-19.12 1.2l-.05-.11c0-2 1.32-4.34 3.59-6.71 2.5808-2.5943 5.558-4.7614 8.82-6.42-.08 4.1 1.27 9.37 8.1 11.32z" fill="url(#n)"/></g></svg>