<svg fill="none" height="86" viewBox="0 0 104 86" width="104" xmlns="http://www.w3.org/2000/svg" xmlns:xlink="http://www.w3.org/1999/xlink"><linearGradient id="a"><stop offset=".17" stop-color="#0097d1"/><stop offset=".78" stop-color="#2771a2"/></linearGradient><radialGradient id="b" cx="0" cy="0" gradientTransform="matrix(25.1325812 19.41829082 -19.42733956 25.14429275 54.2709 32.5936)" gradientUnits="userSpaceOnUse" r="1" xlink:href="#a"/><linearGradient id="c"><stop offset="0" stop-color="#dcdcdc"/><stop offset=".29" stop-color="#b6b6b6"/><stop offset="1" stop-color="#a1a1a1"/></linearGradient><linearGradient id="d" gradientUnits="userSpaceOnUse" x1="93.3634" x2="96.5256" xlink:href="#c" y1="76.5468" y2="78.9811"/><linearGradient id="e" gradientUnits="userSpaceOnUse" x1="1726.28" x2="2547" xlink:href="#c" y1="1642.43" y2="1642.43"/><linearGradient id="f" gradientUnits="userSpaceOnUse" x1="183.595" x2="713.539" xlink:href="#c" y1="2021.92" y2="2021.92"/><radialGradient id="g" cx="0" cy="0" gradientTransform="matrix(3664.4 0 0 2902.06 3259.09 3619.75)" gradientUnits="userSpaceOnUse" r="1" xlink:href="#a"/><radialGradient id="h" cx="0" cy="0" gradientTransform="matrix(22.78861031 17.60725883 -17.61545161 22.799214 56.0166 37.722)" gradientUnits="userSpaceOnUse" r="1"><stop offset=".17" stop-color="#0097d1"/><stop offset=".78" stop-color="#216595"/></radialGradient><linearGradient id="i"><stop offset=".17" stop-color="#0097d1"/><stop offset=".78" stop-color="#224f79"/></linearGradient><radialGradient id="j" cx="0" cy="0" gradientTransform="matrix(21.54069764 16.64307888 -16.65084367 21.55074742 60.2455 32.2511)" gradientUnits="userSpaceOnUse" r="1" xlink:href="#i"/><radialGradient id="k" cx="0" cy="0" gradientTransform="matrix(765.73 0 0 611.56 1985.75 1783.52)" gradientUnits="userSpaceOnUse" r="1" xlink:href="#i"/><radialGradient id="l" cx="0" cy="0" gradientTransform="matrix(1789.31 0 0 1397.12 1358.61 1684.71)" gradientUnits="userSpaceOnUse" r="1" xlink:href="#a"/><linearGradient id="m"><stop offset="0" stop-color="#44e2f0"/><stop offset="1" stop-color="#44e2f0" stop-opacity="0"/></linearGradient><linearGradient id="n" gradientUnits="userSpaceOnUse" x1="22.2235" x2="50.1352" xlink:href="#m" y1="14.3342" y2="33.0363"/><linearGradient id="o" gradientUnits="userSpaceOnUse" x1="391.544" x2="1132.41" xlink:href="#m" y1="1331.18" y2="1292.94"/><clipPath id="p"><path d="m0 0h104v86h-104z"/></clipPath><g clip-path="url(#p)"><path d="m93.6672 82.458c-.8139.7579-1.7381 1.3875-2.7408 1.8671-4.4128 2.1143-10.9633 2.183-18.569.4394-10.0769-2.5662-19.6936-6.6886-28.5044-12.2191-2.9875-1.7985-5.975-3.7892-8.9625-5.9173-5.4719-3.9184-10.6437-8.2415-15.4719-12.9329-7.8387-7.6472-13.63548-15.4454-16.77371-22.3649-2.836733-6.2331-3.480823-11.7523-1.49374-15.775l7.87983-10.55774.56187.34323c-1.27448 4.2698-.10964 9.89881 3.08345 16.11811 3.7 7.2079 10.1135 15.2532 18.5415 22.9965 4.0358 3.7053 8.2918 7.1622 12.7448 10.3519 2.453 1.7573 4.9197 3.4048 7.3728 4.9425 8.3882 5.3625 17.4846 9.5216 27.0243 12.3563 6.578 1.8397 12.4433 2.4438 17.0616 1.6887 1.7322-.2468 3.4125-.7754 4.9747-1.5651l.534.7551s-5.6458 7.5785-5.9061 8.0179c-.4008.5308-.8554 1.0185-1.3567 1.4553z" fill="url(#b)"/><path d="m93.6671 82.458c-.8138.7579-1.738 1.3875-2.7408 1.8671l6.4546-8.8141-1.9596-1.6475c1.7322-.2468 3.4125-.7755 4.9747-1.5652l.534.7551s-5.6458 7.5099-5.9062 7.9493c-.4007.5308-.8553 1.0186-1.3567 1.4553z" fill="url(#d)"/><path d="m79.1683 75.8267-6.852 8.9377c-10.0627-2.5701-19.6652-6.6924-28.4633-12.219l6.852-9.2398.6989-3.5558c9.4421 5.9035 16.5408 9.4731 24.7769 11.7796z" fill="url(#e)"/><path d="m26.1473 44.3866-6.7561 9.3084c-7.8113-7.6471-13.60808-15.4454-16.7463-22.3649l7.04388-9.0613 5.13902 3.1165c3.6864 7.2079 5.7283 9.2124 14.1563 16.9694z" fill="url(#f)"/><path d="m102.04 71.8177c-1.143 1.5625-2.6867 2.7863-4.4672 3.5422-4.4812 2.0044-10.9633 2.0044-18.6512.1922-9.9763-2.6096-19.493-6.74-28.2167-12.2465-2.9052-1.7711-5.8379-3.7069-8.7568-5.7938-5.5334-3.9408-10.7605-8.2963-15.6364-13.029-7.7427-7.5923-13.4984-15.3356-16.62296-22.2139-2.63118-5.7938-3.3986-10.9148-1.94597-14.85508.31174-.83106.72608-1.61975 1.23336-2.3477 2.12417-2.97925 5.81047-4.599303 10.56577-4.9699922 5.6893-.2449048 11.3751.5601982 16.7738 2.3751622 8.8236 2.82882 17.251 6.77348 25.0784 11.73851 2.5627 1.6063 5.1527 3.3225 7.7291 5.1759 4.3365 3.1026 8.4869 6.4584 12.4295 10.0498 6.5506 5.8105 12.2567 12.5114 16.952 19.9074 3.3163 5.4917 5.2213 10.5578 5.4813 14.8825.248 2.6802-.44 5.3635-1.946 7.5923z" fill="url(#g)"/><path d="m86.3355 59.5163c-5.1939 7.2765-22.9954 3.4049-39.7418-8.622-16.7463-12.0268-26.1473-27.6919-20.9534-34.9546 5.1938-7.2628 23.0091-3.4049 39.7417 8.6357 16.7326 12.0405 26.2021 27.6781 20.9535 34.9409z" fill="url(#h)"/><g fill="#fff"><path d="m22.2554 13.5234c-.4289.5982-.7704 1.2547-1.0141 1.9495l-13.4985-8.05902c.31174-.83105.72609-1.61975 1.23336-2.3477 2.12414-2.97925 5.81054-4.599299 10.56584-4.9699886l9.771 9.6104686c-1.3731.12439-2.7066.52684-3.9197 1.18284-1.2132.6561-2.2807 1.5522-3.1379 2.6339z"/><path d="m33.6846 42.2311-7.3728 2.2516c-7.7428-7.5923-13.4985-15.3355-16.62302-22.2139l12.51182 3.5971c2.7565 6.1358 6.6539 11.6898 11.484 16.3652z"/><path d="m78.9216 75.5108c-9.974-2.5968-19.4905-6.7132-28.2166-12.2053l1.3704-6.741c6.6316 4.1629 13.9277 7.1537 21.5701 8.8416z"/><path d="m102.04 71.8176c-1.143 1.5625-2.6866 2.7863-4.4672 3.5422l-10.9632-10.75c1.2667-.6114 2.3634-1.5262 3.193-2.6635 1.1023-1.6133 1.6594-3.538 1.5897-5.4917l12.6077 7.7158c.257 2.7-.436 5.4051-1.96 7.6472z"/><path d="m98.5184 49.343-10.278-3.144c-3.2345-5.6351-7.3264-10.7304-12.1281-15.1022l5.4816-1.6063c6.5369 5.7955 12.2335 12.4776 16.9245 19.8525z"/><path d="m60.3664 19.0698c-5.6327-3.4832-11.7017-6.2025-18.0483-8.0865l-5.9886-8.51211c8.8236 2.82882 17.251 6.77348 25.0784 11.73851z"/></g><path d="m81.6761 57.3334c-4.3853 6.137-19.7064 2.7459-34.2601-7.7021-14.5537-10.4479-22.6254-23.8065-18.2264-29.9572s19.6927-2.7458 34.2601 7.7021c14.5674 10.448 22.6254 23.8065 18.2264 29.9572z" stroke="#fff" stroke-dasharray="3.05 5.45" stroke-miterlimit="10" stroke-width="1.09"/><path d="m86.3355 59.5164c-.206.3049-.44.5898-.6989.8512 3.8097-7.4962-5.5502-22.2963-21.6524-33.8563-16.1023-11.5601-33.0816-15.6514-38.9469-9.6105.1561-.3218.3395-.6295.5482-.9199 5.1938-7.26274 23.009-3.4048 39.7417 8.6357 16.7326 12.0406 26.2569 27.637 21.0083 34.8998z" fill="url(#j)"/><path d="m48.4027 48.382c-12.69-9.1025-19.8023-20.9234-15.8693-26.4151.5513-.7516 1.2752-1.3591 2.1104-1.7711 5.4817-2.7458 17.0342.4531 27.9974 8.32 10.9632 7.8668 17.8153 17.848 16.8834 23.8888-.137.9055-.4844 1.7661-1.0141 2.5125-3.9194 5.4917-17.4042 2.5811-30.1078-6.5351z" fill="url(#k)"/><path d="m50.0198 46.1166c-12.3337-8.8828-19.3364-20.4429-15.4993-25.811l.1234-.151c5.4816-2.7459 17.0341.453 27.9973 8.3199s17.8153 17.848 16.8834 23.8889c-.0399.0478-.0766.0982-.1096.151-3.8372 5.3544-16.9931 2.4987-29.3952-6.3978z" fill="url(#l)"/><path d="m97.5728 75.3599c-2.305.9573-4.7684 1.4742-7.2631 1.524-2.4893.096-4.982-.0558-7.4413-.4531-4.911-.8098-9.7212-2.1446-14.3482-3.9815-4.6409-1.8135-9.1552-3.9372-13.5122-6.3566-4.399-2.3477-8.4553-5.2583-12.6488-7.9493-8.1708-5.7297-15.6244-12.4226-22.2005-19.9348-3.2865-3.7453-6.1967-7.8059-8.6884-12.123-2.3571-4.3521-4.3853-9.1024-4.45382-14.1273.16445 5.0249 2.26117 9.7065 4.68682 14.0038 2.5091 4.2903 5.4329 8.3232 8.7294 12.0405 6.5975 7.4209 14.0602 14.0215 22.228 19.6603 4.1112 2.7459 8.2224 5.6427 12.5529 8.0042 4.3203 2.4423 8.803 4.5845 13.4163 6.4115 4.6011 1.875 9.3877 3.2556 14.2796 4.1188 2.4418.4367 4.9202.6344 7.4002.5904 2.4886-.019 4.9519-.5032 7.2631-1.4279z" fill="#fff"/><path d="m51.9932 47.4757c-.6578-.4256-1.3704-.8924-1.9734-1.3729-12.3336-8.9103-19.3227-20.4566-15.4993-25.8247l.1234-.1648c2.7408-1.3729 7.0027-1.2905 11.9362.1511 5.4835 1.7258 10.6593 4.3115 15.3348 7.6609-5.7283 2.8968-12.1418 8.5945-9.9217 19.5504z" fill="url(#n)"/><path d="m51.9932 47.4757c-.6578-.4256-1.3704-.8924-1.9734-1.3729-12.3336-8.9103-19.3227-20.4566-15.4993-25.8247l.1234-.1648c2.7408-1.3729 7.0027-1.2905 11.9362.1511 5.4835 1.7258 10.6593 4.3115 15.3348 7.6609-5.7283 2.8968-12.1418 8.5945-9.9217 19.5504z" fill="url(#o)"/></g></svg>