<svg fill="none" height="136" viewBox="0 0 129 136" width="129" xmlns="http://www.w3.org/2000/svg" xmlns:xlink="http://www.w3.org/1999/xlink"><linearGradient id="a"><stop offset=".17" stop-color="#0097d1"/><stop offset=".78" stop-color="#2771a2"/></linearGradient><radialGradient id="b" cx="0" cy="0" gradientTransform="matrix(29.84162032 -12.24447763 12.25017168 29.85549757 56.2262 60.29)" gradientUnits="userSpaceOnUse" r="1" xlink:href="#a"/><linearGradient id="c"><stop offset="0" stop-color="#dcdcdc"/><stop offset=".29" stop-color="#b6b6b6"/><stop offset="1" stop-color="#a1a1a1"/></linearGradient><linearGradient id="d" gradientUnits="userSpaceOnUse" x1="114.736" x2="118.483" xlink:href="#c" y1="48.226" y2="46.6809"/><linearGradient id="e" gradientUnits="userSpaceOnUse" x1="2321.19" x2="2737.96" xlink:href="#c" y1="-592.826" y2="-1314.69"/><linearGradient id="f" gradientUnits="userSpaceOnUse" x1="1871.59" x2="2140.7" xlink:href="#c" y1="956.73" y2="490.623"/><radialGradient id="g" cx="0" cy="0" gradientTransform="matrix(1860.795 -3222.99148247 2552.47131359 1473.67 4838.69 -936.912)" gradientUnits="userSpaceOnUse" r="1" xlink:href="#a"/><radialGradient id="h" cx="0" cy="0" gradientTransform="matrix(27.05849326 -11.10251762 11.10768022 27.0710753 61.6234 61.3586)" gradientUnits="userSpaceOnUse" r="1"><stop offset=".17" stop-color="#0097d1"/><stop offset=".78" stop-color="#216595"/></radialGradient><linearGradient id="i"><stop offset=".17" stop-color="#0097d1"/><stop offset=".78" stop-color="#224f79"/></linearGradient><radialGradient id="j" cx="0" cy="0" gradientTransform="matrix(25.57668141 -10.49450733 10.49940421 25.58861584 58.9589 54.861)" gradientUnits="userSpaceOnUse" r="1" xlink:href="#i"/><radialGradient id="k" cx="0" cy="0" gradientTransform="matrix(388.8395 -673.48976999 537.89097637 310.5515 2577.04 -749.395)" gradientUnits="userSpaceOnUse" r="1" xlink:href="#i"/><radialGradient id="l" cx="0" cy="0" gradientTransform="matrix(908.615 -1573.76734452 1228.82942619 709.465 2171.68 -247.98)" gradientUnits="userSpaceOnUse" r="1" xlink:href="#a"/><linearGradient id="m"><stop offset="0" stop-color="#44e2f0"/><stop offset="1" stop-color="#44e2f0" stop-opacity="0"/></linearGradient><linearGradient id="n" gradientUnits="userSpaceOnUse" x1="23.8927" x2="54.5156" xlink:href="#m" y1="79.2048" y2="64.1524"/><linearGradient id="o" gradientUnits="userSpaceOnUse" x1="1369.65" x2="1712.24" xlink:href="#m" y1="423.071" y2="-247.973"/><clipPath id="p"><path d="m0 0h105.623v87.342h-105.623z" transform="matrix(.5 -.8660254 .8660254 .5 0 91.4722)"/></clipPath><g clip-path="url(#p)"><path d="m120.089 50.9606c.254 1.1007.338 2.2333.251 3.3588-.381 4.9548-3.647 10.7511-9.043 16.5553-7.374 7.5599-15.8833 13.9248-25.2218 18.8659-3.0989 1.7143-6.3669 3.331-9.7557 4.878-6.2251 2.823-12.6536 5.1765-19.2316 7.0404-10.7066 3.012-20.5091 4.15-28.1887 3.397-6.9227-.671-12.1041-2.907-14.6331-6.6972l-5.28464-12.2919.5872-.3199c3.10824 3.2892 8.65074 5.1231 15.74234 5.4729 8.2185.4058 18.5515-1.1497 29.6418-4.6304 5.3082-1.6681 10.51-3.656 15.5766-5.9528 2.7913-1.2652 5.493-2.5982 8.0911-3.9749 8.9761-4.6546 17.2534-10.5433 24.5905-17.4944 4.959-4.8514 8.469-9.7034 10.15-14.1488.662-1.6489 1.05-3.3952 1.149-5.1701l.936-.0866s3.798 8.8143 4.052 9.2664c.264.622.462 1.2696.591 1.9323z" fill="url(#b)"/><path d="m120.089 50.9606c.254 1.1007.338 2.2333.251 3.3588l-4.475-10.1529-2.444.887c.663-1.6489 1.051-3.3953 1.149-5.1702l.936-.0866s3.738 8.7795 3.992 9.2316c.264.622.462 1.2696.591 1.9323z" fill="url(#d)"/><path d="m106.894 60.3456 4.382 10.5652c-7.37 7.5454-15.8722 13.8979-25.2008 18.8298l-4.6473-10.7186-2.7726-2.4204c9.9871-5.3069 16.7315-9.7378 22.9427-15.8106z" fill="url(#e)"/><path d="m52.3175 91.0143 4.7564 10.6687c-10.6927 2.987-20.4951 4.126-28.1747 3.372l-4.3929-10.7963 5.3507-2.9374c8.2116.4179 11.0115-.3602 22.1138-3.8339z" fill="url(#f)"/><path d="m114.983 38.193c.794 1.799 1.086 3.7781.847 5.728-.513 4.9593-3.804 10.6605-9.302 16.5021-7.3616 7.4494-15.827 13.7223-25.1001 18.5989-3.033 1.6559-6.2249 3.2523-9.5426 4.7599-6.276 2.8656-12.7611 5.2513-19.3997 7.1366-10.6096 2.9547-20.3429 4.085-27.9793 3.3403-6.4319-.6278-11.3258-2.5533-14.0538-5.8319-.57259-.6962-1.05588-1.4611-1.43855-2.2769-1.54173-3.3811-1.09467-7.4461.99405-11.8169 2.6736-5.1283 6.269-9.7203 10.6068-13.547 6.9687-6.3242 14.7177-11.7334 23.0594-16.0966 2.7141-1.4383 5.5388-2.8449 8.4773-4.1697 4.9309-2.2387 9.99-4.185 15.1509-5.829 8.4369-2.8109 17.2282-4.4269 26.1176-4.8009 6.5142-.1282 11.937.769 15.873 2.7361 2.484 1.1429 4.494 3.1104 5.69 5.567z" fill="url(#g)"/><path d="m96.1884 45.7592c3.7625 8.2632-8.6824 21.9543-27.7643 30.5761-19.0819 8.6219-37.6338 8.9356-41.3843.6794-3.7504-8.2562 8.6894-21.9664 27.7764-30.5692s37.6496-8.9908 41.3722-.6863z" fill="url(#h)"/><g fill="#fff"><path d="m23.1956 78.7649c.3084.681.7124 1.3147 1.1998 1.8819l-13.9428 7.7801c-.57268-.6962-1.05597-1.4612-1.43863-2.277-1.54173-3.3811-1.09468-7.4461.99403-11.8168l13.4145-3.7138c-.5878 1.2708-.911 2.6481-.95 4.0482-.039 1.4002.207 2.7942.7231 4.0974z"/><path d="m54.2491 83.2905-1.7636 7.628c-10.6095 2.9547-20.3428 4.085-27.9792 3.3403l9.5173-9.178c6.7965.6913 13.6605.0837 20.2255-1.7903z"/><path d="m106.491 60.4022c-7.3483 7.4539-15.8015 13.7337-25.0631 18.6198l-5.2332-4.6284c7.0291-3.7188 13.3646-8.6174 18.73-14.4821z"/><path d="m114.983 38.193c.794 1.7991 1.086 3.7782.847 5.7281l-15.022 4.1837c.105-1.4245-.143-2.8537-.722-4.1609-.8588-1.7887-2.2688-3.2561-4.0226-4.1869l13.1886-7.1708c2.505 1.1451 4.532 3.1284 5.731 5.6068z"/><path d="m93.427 29.8777-7.9845 7.4434c-6.5988-.0166-13.1581.995-19.4417 2.9983l1.3708-5.637c8.4168-2.8066 17.1867-4.4237 26.0554-4.8047z"/><path d="m47.4269 48.0614c-5.9239 3.1853-11.3974 7.1424-16.2773 11.7677l-10.5278.9448c6.9687-6.3242 14.7176-11.7334 23.0593-16.0966z"/></g><path d="m91.9023 48.7488c3.1709 6.9735-7.5919 18.727-24.1717 26.222-16.5798 7.4951-32.428 7.811-35.6039.8185-3.176-6.9924 7.5849-18.7149 24.1716-26.222 16.5868-7.5071 32.428-7.8109 35.604-.8185z" stroke="#fff" stroke-dasharray="3.05 5.45" stroke-miterlimit="10" stroke-width="1.09"/><path d="m96.1884 45.7591c.1635.3361.2954.6866.3937 1.047-4.6586-7.1574-22.4288-6.4405-40.7731 1.8518-18.3443 8.2924-30.5649 21.1488-28.2301 29.3752-.2037-.3008-.3813-.6183-.5307-.9493-3.7505-8.2562 8.6894-21.9664 27.7764-30.5692s37.6411-9.0599 41.3638-.7555z" fill="url(#j)"/><path d="m67.1328 73.4687c-14.45 6.539-28.4586 6.792-31.2916.544-.381-.8666-.5478-1.8117-.486-2.7556.3685-6.2156 9.0485-14.7521 21.5348-20.3999 12.4864-5.6478 24.7447-6.606 29.5847-2.7188.7268.5804 1.3074 1.3229 1.6948 2.1678 2.8399 6.2359-6.5676 16.6183-21.0367 23.1625z" fill="url(#k)"/><path d="m65.9615 70.8959c-14.0758 6.3372-27.7993 6.6262-30.5723.5253l-.0702-.1851c.3685-6.2157 9.0484-14.7522 21.5348-20.3999 12.4864-5.6478 24.7447-6.606 29.5847-2.7188.0217.0594.0475.1172.0771.1731 2.7609 6.0939-6.4313 16.2149-20.5541 22.6054z" fill="url(#l)"/><path d="m115.83 43.9209c-.329 2.5135-1.125 4.9426-2.348 7.1621-1.18 2.2382-2.579 4.3535-4.177 6.3148-3.206 3.9082-6.823 7.4611-10.7883 10.598-3.9518 3.161-8.1119 6.053-12.4524 8.6566-4.2987 2.6769-8.9186 4.7667-13.4148 7.0885-9.1886 4.277-18.8604 7.4341-28.807 9.4033-4.963.9887-10.0123 1.4864-15.0746 1.4857-5.0248-.1369-10.2328-.7652-14.6872-3.2566 4.5031 2.407 9.6855 2.9402 14.6968 2.989 5.0477-.0283 10.0795-.552 15.023-1.5637 9.8772-2.0344 19.4723-5.2463 28.5795-9.5669 4.5027-2.2216 9.1383-4.3666 13.4143-6.9762 4.342-2.5597 8.5025-5.4145 12.4521-8.5444 3.9856-3.0947 7.6306-6.6037 10.8736-10.4679 1.624-1.9259 3.057-4.0054 4.277-6.209 1.247-2.1985 2.072-4.6109 2.433-7.1133z" fill="#fff"/><path d="m68.1591 69.8505c-.7084.3625-1.4808.7522-2.2096 1.0385-14.1 6.3233-27.8045 6.6072-30.5845.5184l-.0822-.1921c.1842-3.1079 2.4209-6.8146 6.194-10.4217 4.3026-3.9466 9.2051-7.186 14.5252-9.5974-.3609 6.5093 1.3936 15.0435 12.1571 18.6543z" fill="url(#n)"/><path d="m68.1591 69.8505c-.7084.3625-1.4808.7522-2.2096 1.0385-14.1 6.3233-27.8045 6.6072-30.5845.5184l-.0822-.1921c.1842-3.1079 2.4209-6.8146 6.194-10.4217 4.3026-3.9466 9.2051-7.186 14.5252-9.5974-.3609 6.5093 1.3936 15.0435 12.1571 18.6543z" fill="url(#o)"/></g></svg>