<svg fill="none" height="70" viewBox="0 0 95 70" width="95" xmlns="http://www.w3.org/2000/svg" xmlns:xlink="http://www.w3.org/1999/xlink"><radialGradient id="a" cx="0" cy="0" gradientTransform="matrix(-24.4635133 9.7297743 -9.7297743 -24.4635133 54.2047 40.7602)" gradientUnits="userSpaceOnUse" r="1"><stop offset=".19" stop-color="#9bcc50"/><stop offset=".87" stop-color="#006e41"/></radialGradient><linearGradient id="b"><stop offset="0" stop-color="#dcdcdc"/><stop offset=".29" stop-color="#b6b6b6"/><stop offset="1" stop-color="#a1a1a1"/></linearGradient><linearGradient id="c" gradientUnits="userSpaceOnUse" x1="6.34013" x2="3.26555" xlink:href="#b" y1="50.0956" y2="51.3184"/><linearGradient id="d" gradientUnits="userSpaceOnUse" x1="-686.799" x2="-1219.28" xlink:href="#b" y1="-1016.22" y2="-1044.93"/><linearGradient id="e" gradientUnits="userSpaceOnUse" x1="274.129" x2="-194.906" xlink:href="#b" y1="-600.224" y2="-625.514"/><linearGradient id="f"><stop offset=".19" stop-color="#9bcc50"/><stop offset=".87" stop-color="#007947"/></linearGradient><radialGradient id="g" cx="0" cy="0" gradientTransform="matrix(-39.89693367 15.86804622 -15.86804622 -39.89693367 56.4562 34.9299)" gradientUnits="userSpaceOnUse" r="1" xlink:href="#f"/><radialGradient id="h" cx="0" cy="0" gradientTransform="matrix(-1033.2694329 -55.70665963 36.40811384 -675.31227673 -1191.52 -948.095)" gradientUnits="userSpaceOnUse" r="1" xlink:href="#f"/><linearGradient id="i"><stop offset=".19" stop-color="#569b54"/><stop offset=".87" stop-color="#135e3b"/></linearGradient><radialGradient id="j" cx="0" cy="0" gradientTransform="matrix(-20.97732745 8.34322769 -8.34322769 -20.97732745 51.9221 45.1728)" gradientUnits="userSpaceOnUse" r="1" xlink:href="#i"/><radialGradient id="k" cx="0" cy="0" gradientTransform="matrix(-592.28884763 -31.93207133 20.82831611 -386.33194884 -890.268 -722.294)" gradientUnits="userSpaceOnUse" r="1" xlink:href="#i"/><radialGradient id="l" cx="0" cy="0" gradientTransform="matrix(-1395.25374065 -75.22232125 46.87559529 -869.46731478 -432.181 -649.896)" gradientUnits="userSpaceOnUse" r="1" xlink:href="#f"/><linearGradient id="m" gradientUnits="userSpaceOnUse" x1="80.7738" x2="55.6164" y1="25.6088" y2="37.5772"><stop offset="0" stop-color="#44e2f0"/><stop offset="1" stop-color="#44e2f0" stop-opacity="0"/></linearGradient><linearGradient id="n" gradientUnits="userSpaceOnUse" x1="78.9133" x2="51.9505" y1="26.9937" y2="39.3577"><stop offset="0" stop-color="#dfe22a"/><stop offset="1" stop-color="#fff" stop-opacity="0"/></linearGradient><clipPath id="o"><path d="m0 0h90.282v63.7537h-90.282z" transform="matrix(-.99854985 -.05383482 .05383482 -.99854985 91.1302 69.1929)"/></clipPath><g clip-path="url(#o)"><path d="m2.16744 48.0864c-.19058-.9139-.24096-1.8515-.14945-2.7806.34742-4.0294 3.07233-8.6986 7.49218-13.4196 6.05703-6.1062 13.03073-11.2287 20.66893-15.1824 2.5385-1.373 5.2119-2.6737 8.0203-3.902 5.0888-2.2806 10.3427-4.17291 15.7169-5.66089 8.6768-2.3177 16.6639-3.18871 22.9008-2.50097 5.6311.57697 9.8526 2.43166 11.8721 5.53436l4.196 10.0538-.4314.2761c-2.4558-2.7357-6.9934-4.2821-12.7689-4.5935-8.2199-.1986-16.4129 1.0151-24.2221 3.5882-4.3167 1.3235-8.5491 2.908-12.6737 4.7446-2.2939 1.0218-4.4984 2.0744-6.6797 3.1803-7.3492 3.7303-14.1448 8.463-20.192 14.0626-3.5793 3.1874-6.45029 7.09-8.42767 11.4558-.54417 1.341-.87114 2.7602-.96863 4.2042l-.65524.0818s-2.98362-7.1898-3.13486-7.5234c-.241-.5195-.42979-1.0616-.56356-1.6184z" fill="url(#a)"/><path d="m2.16744 48.0864c-.19058-.9139-.24097-1.8515-.14945-2.7806l3.58326 8.3807 1.939-.7155c-.54416 1.341-.87114 2.7602-.96863 4.2042l-.70576.053s-2.98363-7.1898-3.13486-7.5234c-.241-.5194-.42978-1.0616-.56356-1.6184z" fill="url(#c)"/><path d="m12.9749 40.5337-3.43878-8.6462c6.04908-6.1044 13.01388-11.2273 20.64298-15.1837l3.7071 8.7388 2.2231 1.9812c-8.1704 4.2715-13.6989 7.8263-18.7925 12.7323z" fill="url(#d)"/><path d="m57.648 15.9072-3.7864-8.71699c8.7316-2.36682 16.7186-3.23782 22.9555-2.55009l3.4939 8.83138-4.371 2.3676c-6.6971-.3611-8.9673.2194-18.0299 2.9329z" fill="url(#e)"/><path d="m6.2256 58.5232c-.63665-1.4683-.86017-3.0827-.64642-4.6687.46494-4.0361 3.20143-8.6787 7.69842-13.3825 6.059-6.036 13.0097-11.105 20.6086-15.0294 2.4932-1.3364 5.0744-2.6161 7.7422-3.8129 5.1211-2.2873 10.4102-4.1779 15.8207-5.6553 8.6653-2.3444 16.5997-3.2052 22.7991-2.5455 5.1776.5395 9.2033 2.1623 11.4535 4.8479.4797.5701.8833 1.2001 1.2007 1.8741 1.153 2.7566.8318 6.0585-.8964 9.623-2.2278 4.1574-5.1937 7.8745-8.7528 10.9696-5.7308 5.1067-12.0894 9.4617-18.922 12.9596-2.2245 1.1817-4.5356 2.2806-6.9355 3.3357-4.0315 1.7962-8.1663 3.351-12.3825 4.6562-6.9121 2.2436-14.1045 3.5076-21.3674 3.7551-5.2105.0705-9.7114-.7058-12.8893-2.3611-1.99267-.9524-3.59379-2.5659-4.5309-4.5658z" fill="url(#g)"/><path d="m21.5569 52.5291c-2.9944-6.7478 7.2485-17.8324 22.8666-24.8002s30.7089-7.0523 33.6904-.3052c2.9814 6.7472-7.2485 17.8324-22.8666 24.8003-15.6182 6.9678-30.7089 7.0523-33.6904.3051z" fill="url(#h)"/><g fill="#fff"><path d="m81.2581 26.0833c-.2451-.5586-.5675-1.0799-.9579-1.5486l11.4138-6.2443c.4797.5701.8833 1.2 1.2006 1.8741 1.1531 2.7566.8318 6.0585-.8963 9.623l-10.9751 2.9357c.4791-1.0359.7449-2.1575.7818-3.2981.0369-1.1407-.1559-2.2771-.5669-3.3418z"/><path d="m56.0202 22.1975 1.532-6.2044c8.6653-2.3444 16.5998-3.2052 22.7991-2.5455l-7.8178 7.3884c-5.5408-.6129-11.1478-.1506-16.5133 1.3615z"/><path d="m13.2776 40.4719c6.0591-6.036 13.0097-11.1049 20.6086-15.0294l4.2485 3.7696c-5.7526 2.985-10.9497 6.936-15.3646 11.6805z"/><path d="m6.22559 58.5234c-.63665-1.4684-.86016-3.0827-.64642-4.6688l12.27153-3.3214c-.0938 1.1582.0982 2.3218.5592 3.3884.6715 1.4527 1.7939 2.6499 3.2003 3.4137l-10.8537 5.7539c-1.99268-.9525-3.59379-2.5659-4.53091-4.5658z"/><path d="m23.6458 65.4501 6.626-6.0469c5.38.0804 10.7395-.6803 15.8847-2.2545l-1.157 4.5585c-6.9083 2.2382-14.096 3.498-21.3537 3.7429z"/><path d="m61.2913 50.936c4.8548-2.548 9.3473-5.7334 13.3581-9.4717l8.5641-.7097c-5.7307 5.1066-12.0893 9.4616-18.9219 12.9595z"/></g><path d="m25.0987 50.0909c-2.5292-5.7205 6.3639-15.1857 19.8575-21.1356 13.4936-5.95 26.486-6.2257 29.0158-.5182 2.5299 5.7075-6.3638 15.1857-19.8588 21.1616s-26.4846 6.1997-29.0145.4922z" stroke="#fff" stroke-dasharray="2.66 4.75" stroke-miterlimit="10" stroke-width=".95"/><path d="m21.5569 52.5291c-.1288-.2772-.2309-.566-.3049-.8625 3.732 5.8634 18.205 5.4072 33.1423-1.2459s25.1014-16.9999 23.3031-23.7223c.1553.2494.2935.5091.4137.7773 2.9937 6.7608-7.2356 17.833-22.8667 24.8002-15.6311 6.9671-30.6931 7.0011-33.6875.2532z" fill="url(#j)"/><path d="m45.4534 30.1145c11.8155-5.2465 23.2365-5.3466 25.4986-.2262.3101.7062.4428 1.4774.3865 2.2466-.2743 5.0878-7.4787 11.9626-17.6934 16.4883s-20.1314 5.2145-24.0985 2.0198c-.6036-.4668-1.0846-1.0735-1.4016-1.7677-2.2607-5.1463 5.4805-13.5281 17.3084-18.7608z" fill="url(#k)"/><path d="m46.3818 32.2082c11.5374-5.1573 22.6823-5.2072 24.8996-.2195l.0572.1463c-.2744 5.0877-7.4788 11.9625-17.6935 16.4882s-20.1314 5.2146-24.0985 2.0199l-.0572-.1463c-2.1653-4.985 5.3448-13.184 16.8924-18.2886z" fill="url(#l)"/><path d="m5.57919 53.8545c.27353-2.0471.92761-4.025 1.92848-5.8315.99119-1.8105 2.14686-3.526 3.45233-5.1247 2.6623-3.1548 5.6483-6.0216 8.909-8.5531 3.2403-2.5515 6.6492-4.8813 10.2035-6.9734 3.5264-2.1529 7.3002-3.8238 10.98-5.682 7.5093-3.4187 15.4012-5.9255 23.507-7.4667 4.0574-.7625 8.1793-1.1288 12.3075-1.0936 4.1406-.0569 8.2337.8872 11.931 2.752-3.7191-1.7929-7.8162-2.6613-11.9429-2.5314-4.1068-.0134-8.2048.3805-12.2338 1.1757-8.0696 1.5805-15.9201 4.1246-23.3829 7.5775-3.6783 1.8323-7.4521 3.5032-10.975 5.5911-3.5377 2.0637-6.932 4.3638-10.1597 6.8847-3.2555 2.5063-6.2437 5.3418-8.917 8.4616-1.33607 1.553-2.51659 3.2332-3.52468 5.0166-1.05472 1.7833-1.7615 3.7505-2.08283 5.7972z" fill="#fff"/><path d="m44.5923 33.0489c.5749-.2814 1.1764-.5744 1.7895-.8407 11.5504-5.1566 22.6823-5.2072 24.8996-.2194l.0572.1462c-.14 2.5958-2.017 5.5405-5.129 8.4576-3.5311 3.1866-7.5469 5.7909-11.8966 7.7152.3907-5.3157-.9926-12.25-9.7207-15.2589z" fill="url(#m)"/><path d="m44.5923 33.0489c.5749-.2814 1.1764-.5744 1.7895-.8407 11.5504-5.1566 22.6823-5.2072 24.8996-.2194l.0572.1462c-.14 2.5958-2.017 5.5405-5.129 8.4576-3.5311 3.1866-7.5469 5.7909-11.8966 7.7152.3907-5.3157-.9926-12.25-9.7207-15.2589z" fill="url(#n)"/></g></svg>