<svg fill="none" height="76" viewBox="0 0 102 76" width="102" xmlns="http://www.w3.org/2000/svg" xmlns:xlink="http://www.w3.org/1999/xlink"><radialGradient id="a" cx="0" cy="0" gradientTransform="matrix(26.64203022 -14.13177942 14.06983164 26.52524276 42.8717 32.0314)" gradientUnits="userSpaceOnUse" r="1"><stop offset=".19" stop-color="#9bcc50"/><stop offset=".87" stop-color="#006e41"/></radialGradient><linearGradient id="b"><stop offset="0" stop-color="#dcdcdc"/><stop offset=".29" stop-color="#b6b6b6"/><stop offset="1" stop-color="#a1a1a1"/></linearGradient><linearGradient id="c" gradientUnits="userSpaceOnUse" x1="96.2312" x2="99.5706" xlink:href="#b" y1="15.3622" y2="13.5628"/><linearGradient id="d" gradientUnits="userSpaceOnUse" x1="2362.3" x2="3507.84" xlink:href="#b" y1="1656.38" y2="1656.38"/><linearGradient id="e" gradientUnits="userSpaceOnUse" x1="314.654" x2="1345.28" xlink:href="#b" y1="1098.79" y2="1098.79"/><linearGradient id="f"><stop offset=".19" stop-color="#9bcc50"/><stop offset=".87" stop-color="#007947"/></linearGradient><radialGradient id="g" cx="0" cy="0" gradientTransform="matrix(43.44661579 -23.04546559 22.94439043 43.25606317 41.0466 38.9188)" gradientUnits="userSpaceOnUse" r="1" xlink:href="#f"/><radialGradient id="h" cx="0" cy="0" gradientTransform="matrix(2199.72 0 0 1532.49 4153.77 1162.87)" gradientUnits="userSpaceOnUse" r="1" xlink:href="#f"/><linearGradient id="i"><stop offset=".19" stop-color="#569b54"/><stop offset=".87" stop-color="#135e3b"/></linearGradient><radialGradient id="j" cx="0" cy="0" gradientTransform="matrix(22.84504527 -12.11768685 12.06454876 22.74486591 44.9107 26.7545)" gradientUnits="userSpaceOnUse" r="1" xlink:href="#i"/><radialGradient id="k" cx="0" cy="0" gradientTransform="matrix(1260.7 0 0 878.358 3159.11 922.929)" gradientUnits="userSpaceOnUse" r="1" xlink:href="#i"/><radialGradient id="l" cx="0" cy="0" gradientTransform="matrix(2963.37 0 0 1987.88 2138.79 876.17)" gradientUnits="userSpaceOnUse" r="1" xlink:href="#f"/><linearGradient id="m" gradientUnits="userSpaceOnUse" x1="14.5223" x2="41.5485" y1="52.5704" y2="35.6251"><stop offset="0" stop-color="#44e2f0"/><stop offset="1" stop-color="#44e2f0" stop-opacity="0"/></linearGradient><linearGradient id="n" gradientUnits="userSpaceOnUse" x1="16.4657" x2="45.5029" y1="50.7574" y2="33.1326"><stop offset="0" stop-color="#dfe22a"/><stop offset="1" stop-color="#fff" stop-opacity="0"/></linearGradient><clipPath id="o"><path d="m0 0h102v76h-102z"/></clipPath><g clip-path="url(#o)"><path d="m101.471 17.3775c.335 1.0124.514 2.0696.529 3.1353.103 4.6167-2.3701 10.2368-6.8811 16.1625-4.9851 6.5607-12.4745 13.4897-21.7099 19.7995-2.7256 1.8656-5.6091 3.684-8.627 5.4477-5.5308 3.1921-11.2958 5.9668-17.2463 8.3007-9.6777 3.7702-18.7077 5.7533-25.9206 5.8082-6.5177 0-11.5502-1.5677-14.26788-4.8206l-6.06738-10.903.52932-.3684c3.20749 2.7747 8.53224 3.9191 15.16844 3.5977 7.6869-.3919 17.1593-2.8061 27.1689-7.0544 4.7866-2.0421 9.4432-4.3717 13.944-6.9761 2.4912-1.4318 4.8797-2.9106 7.1655-4.4365 8.8087-5.8552 16.1165-12.2747 21.3306-18.467 4.1635-4.9538 6.9838-9.7743 8.1373-14.0462.4596-1.5882.6544-3.2404.5767-4.89105l.869-.17244s4.3054 7.77559 4.5194 8.14399c.321.551.584 1.1343.782 1.7401z" fill="url(#a)"/><path d="m101.471 17.3773c.335 1.0125.514 2.0696.529 3.1353l-5.1588-9.0611-2.1252 1.0896c.4596-1.5883.6544-3.24047.5767-4.89112l.869-.17244s4.3053 7.77556 4.5193 8.14396c.325.5557.59 1.1443.79 1.7558z" fill="url(#c)"/><path d="m90.0627 27.3005 5.0483 9.406c-4.9772 6.5293-12.4666 13.4583-21.702 19.7681l-5.3405-9.4451-2.8125-1.9753c8.8087-5.863 14.6786-10.566 19.8849-16.7817z" fill="url(#d)"/><path d="m42.1004 60.8014 5.4353 9.4059c-9.6778 3.7859-18.7077 5.769-25.9206 5.8239l-5.1036-9.6019 4.7401-3.2216c7.6949-.3919 10.223-1.3638 20.2326-5.6279z" fill="url(#e)"/><path d="m95.5217 6.05111c.9078 1.5896 1.3637 3.39381 1.3193 5.22029 0 4.6324-2.5597 10.2446-7.1102 16.139-5.0245 6.5136-12.4903 13.3251-21.6625 19.5957-2.6808 1.8342-5.4959 3.603-8.4453 5.3066-5.5701 3.2256-11.3805 6.0242-17.3805 8.3712-9.5988 3.7467-18.5419 5.7142-25.7311 5.7455-6.0279 0-10.79175-1.3011-13.63584-4.0759-.61562-.5833-1.1473-1.248-1.58005-1.9752-1.722252-2.9786-1.690651-6.7723-.158-10.9972 1.53264-4.2248 4.46363-8.8337 8.61916-13.5523 5.89583-6.5105 12.60773-12.2451 19.97183-17.064 2.37-1.5677 4.8981-3.1353 7.4973-4.6559 4.3842-2.5377 8.9164-4.81479 13.5726-6.81934 8.6113-3.70751 16.8275-6.04332 23.8745-6.905532 6.0279-.744638 11.1947-.4075912 15.0105 1.058172 2.4254.81904 4.4889 2.44808 5.8383 4.60891z" fill="url(#g)"/><path d="m78.7575 14.7672c4.2661 7.2818-6.0437 21.1634-23.0213 30.9299s-34.2159 11.828-38.4821 4.5384c-4.2661-7.2896 6.0437-21.1634 23.0213-30.9221 16.9776-9.75863 34.216-11.82794 38.4821-4.5462z" fill="url(#h)"/><g fill="#fff"><path d="m13.8333 52.2108c.3565.6008.7923 1.1517 1.2957 1.6382l-12.25331 8.5046c-.61562-.5833-1.1473-1.248-1.58005-1.9753-1.722252-2.9785-1.690651-6.7723-.158-10.9971l12.11896-4.703c-.79 2.8453-.6162 5.432.5767 7.5326z"/><path d="m43.1827 53.4727-.9401 7.2269c-9.5988 3.731-18.5419 5.6984-25.7311 5.7297l7.9792-9.3902c5.2063.1803 11.7161-1.0033 18.692-3.5664z"/><path d="m89.7309 27.4338c-5.0245 6.5137-12.4903 13.3251-21.6624 19.5957l-5.3248-3.7388c6.9601-4.797 12.5219-10.1192 16.0928-15.1671z"/><path d="m95.5218 6.05092c.9078 1.5896 1.3638 3.39381 1.3193 5.22028l-13.6042 5.3065c-.04-1.3302-.409-2.6303-1.0744-3.7859-.9592-1.5581-2.3921-2.7739-4.0923-3.47232l11.6133-7.83828c2.4194.80904 4.4821 2.42359 5.8383 4.56972z"/><path d="m74.6731.384033-6.731 7.642327c-6.1601.59708-12.1889 2.14144-17.8704 4.57754l.7268-5.31434c8.6113-3.70751 16.8275-6.04332 23.8746-6.905527z"/><path d="m33.5286 21.5394c-5.2262 3.4957-9.9582 7.6686-14.0703 12.408l-9.7015 1.8812c5.8959-6.5105 12.6077-12.2451 19.9718-17.064z"/></g><path d="m75.0523 17.981c3.6104 6.1609-5.3564 18.0281-20.035 26.4778-14.6787 8.4496-29.5311 10.3308-33.1415 4.1386-3.6104-6.1923 5.3563-18.0281 20.035-26.4777 14.6786-8.4497 29.4916-10.2996 33.1415-4.1387z" stroke="#fff" stroke-dasharray="5.04 8.99" stroke-miterlimit="10" stroke-width="1.8"/><path d="m78.7575 14.7672c.1732.3006.3263.6122.4582.9328-5.0087-6.18442-21.4965-3.8486-37.8026 5.5573-16.3061 9.406-26.4816 22.4332-23.5744 29.7855-.2153-.2649-.4107-.5453-.5846-.8387-4.2661-7.2818 6.0358-21.1634 23.0213-30.922 16.9855-9.75868 34.2081-11.79664 38.4821-4.5149z" fill="url(#j)"/><path d="m54.2588 43.181c-12.8536 7.4072-25.8969 8.9513-29.1281 3.441-.4383-.7666-.6823-1.6273-.7111-2.5082-.2923-5.8082 7.0392-14.5008 18.1706-20.9047s22.3577-8.4262 27.2874-5.2987c.755.4636 1.3864 1.1008 1.8408 1.8577 3.1996 5.5181-4.5664 15.9979-17.4596 23.4129z" fill="url(#k)"/><path d="m52.9316 40.9158c-12.5456 7.2347-25.2808 8.7396-28.4409 3.3547l-.079-.1567c-.2923-5.8082 7.0392-14.5008 18.1706-20.9047s22.3577-8.4262 27.2874-5.2987c.039.0475.0709.1003.0948.1568 3.1364 5.3849-4.4794 15.6373-17.0329 22.8486z" fill="url(#l)"/><path d="m96.8411 11.2712c-.0483 2.3553-.5469 4.68-1.4694 6.8507-.895 2.1907-2.0009 4.2906-3.3023 6.2706-2.6356 3.916-5.678 7.5467-9.0774 10.8325-3.3803 3.3026-6.989 6.367-10.7996 9.1708-3.8013 2.8278-7.7574 5.4446-11.8504 7.8383-8.1538 4.798-16.8555 8.6134-25.9207 11.3655-4.5401 1.3713-9.2053 2.2954-13.9281 2.7591-2.3658.2-4.7444.2-7.1102 0-2.3658-.1755-4.68716-.7315-6.8732-1.646 2.20632.8852 4.5444 1.4043 6.9206 1.5363 2.37.1525 4.7488.1027 7.1102-.149 4.696-.5048 9.3298-1.471 13.8333-2.8845 8.9973-2.8171 17.6306-6.6711 25.7232-11.483 8.1834-4.6994 15.7736-10.3487 22.6105-16.8288 3.4174-3.2371 6.4837-6.8205 9.1485-10.6915 1.3313-1.9365 2.469-3.9973 3.3971-6.153.9531-2.144 1.4917-4.4466 1.5879-6.788z" fill="#fff"/><path d="m54.8751 39.74c-.6241.3919-1.2799.7838-1.9435 1.1757-12.5456 7.2347-25.2808 8.7319-28.4409 3.3626l-.0869-.1646c-.1422-2.9001 1.667-6.4901 4.8271-10.2289 3.6425-4.0549 7.9087-7.5125 12.6404-10.2447.1896 6.0825 2.6545 13.7719 13.0038 16.0999z" fill="url(#m)"/><path d="m54.8751 39.74c-.6241.3919-1.2799.7838-1.9435 1.1757-12.5456 7.2347-25.2808 8.7319-28.4409 3.3626l-.0869-.1646c-.1422-2.9001 1.667-6.4901 4.8271-10.2289 3.6425-4.0549 7.9087-7.5125 12.6404-10.2447.1896 6.0825 2.6545 13.7719 13.0038 16.0999z" fill="url(#n)"/></g></svg>