<svg fill="none" height="121" viewBox="0 0 106 121" width="106" xmlns="http://www.w3.org/2000/svg" xmlns:xlink="http://www.w3.org/1999/xlink"><radialGradient id="a" cx="0" cy="0" gradientTransform="matrix(3.11637165 29.85629867 -29.73028327 3.10321828 50.6882 43.69)" gradientUnits="userSpaceOnUse" r="1"><stop offset="0" stop-color="#fffacb"/><stop offset=".11" stop-color="#faf1ba"/><stop offset=".34" stop-color="#efd88d"/><stop offset=".37" stop-color="#edd587"/><stop offset=".69" stop-color="#eab911"/><stop offset="1" stop-color="#854518"/></radialGradient><linearGradient id="b" gradientUnits="userSpaceOnUse" x1="53.5977" x2="61.0398" y1="8.8493" y2="77.0849"><stop offset=".01" stop-color="#fac825"/><stop offset=".25" stop-color="#fffacb"/><stop offset=".3" stop-color="#f8efba"/><stop offset=".41" stop-color="#e7d18d"/><stop offset=".55" stop-color="#cba145"/><stop offset=".6" stop-color="#c2912d"/><stop offset=".87" stop-color="#edd587"/><stop offset="1" stop-color="#fffacb"/></linearGradient><linearGradient id="c"><stop offset="0" stop-color="#fffacb"/><stop offset=".11" stop-color="#faf1ba"/><stop offset=".34" stop-color="#efd88d"/><stop offset=".37" stop-color="#edd587"/><stop offset=".69" stop-color="#cd6c1e"/><stop offset="1" stop-color="#774711"/></linearGradient><radialGradient id="d" cx="0" cy="0" gradientTransform="matrix(2.88353529 27.62561736 -27.50905064 2.87136817 57.1607 42.9841)" gradientUnits="userSpaceOnUse" r="1" xlink:href="#c"/><linearGradient id="e"><stop offset=".01" stop-color="#fcd030"/><stop offset=".25" stop-color="#fffad4"/><stop offset=".31" stop-color="#f9f0c3"/><stop offset=".41" stop-color="#ebd696"/><stop offset=".56" stop-color="#d4ac4e"/><stop offset=".6" stop-color="#cea13b"/><stop offset=".87" stop-color="#f1db98"/><stop offset="1" stop-color="#fffad4"/></linearGradient><linearGradient id="f" gradientUnits="userSpaceOnUse" x1="84.6165" x2="47.9687" xlink:href="#e" y1="72.4804" y2="34.0568"/><radialGradient id="g" cx="0" cy="0" gradientTransform="matrix(13.89490456 -3.22784746 3.2375322 13.93659444 52.9776 72.3377)" gradientUnits="userSpaceOnUse" r="1"><stop offset=".01" stop-color="#fff"/><stop offset=".02" stop-color="#f9f9f9" stop-opacity=".97"/><stop offset=".14" stop-color="#cecccc" stop-opacity=".74"/><stop offset=".26" stop-color="#a7a4a5" stop-opacity=".55"/><stop offset=".38" stop-color="#878284" stop-opacity=".38"/><stop offset=".5" stop-color="#6d6769" stop-opacity=".24"/><stop offset=".62" stop-color="#585154" stop-opacity=".14"/><stop offset=".74" stop-color="#4a4245" stop-opacity=".06"/><stop offset=".87" stop-color="#41393c" stop-opacity=".01"/><stop offset="1" stop-color="#3e3639" stop-opacity="0"/></radialGradient><radialGradient id="h" cx="0" cy="0" gradientTransform="matrix(19.89423499 -4.52654189 4.54031939 19.95478737 49.0288 71.888)" gradientUnits="userSpaceOnUse" r="1"><stop offset=".01" stop-color="#fcbc4b"/><stop offset=".02" stop-color="#f8b94b" stop-opacity=".98"/><stop offset=".13" stop-color="#cd9b47" stop-opacity=".75"/><stop offset=".25" stop-color="#a78043" stop-opacity=".55"/><stop offset=".37" stop-color="#876940" stop-opacity=".38"/><stop offset=".49" stop-color="#6c573d" stop-opacity=".24"/><stop offset=".62" stop-color="#58483b" stop-opacity=".14"/><stop offset=".74" stop-color="#4a3e3a" stop-opacity=".06"/><stop offset=".87" stop-color="#413839" stop-opacity=".02"/><stop offset="1" stop-color="#3e3639" stop-opacity="0"/></radialGradient><radialGradient id="i" cx="0" cy="0" gradientTransform="matrix(8.14029372 -5.62715299 5.61825387 8.12742018 48.9678 71.7928)" gradientUnits="userSpaceOnUse" r="1"><stop offset="0" stop-opacity="0"/><stop offset=".57" stop-color="#121212" stop-opacity="0"/><stop offset=".59" stop-color="#1e1b15" stop-opacity=".05"/><stop offset=".62" stop-color="#3f331d" stop-opacity=".19"/><stop offset=".67" stop-color="#74592a" stop-opacity=".42"/><stop offset=".73" stop-color="#bc8d3b" stop-opacity=".73"/><stop offset=".78" stop-color="#e9ae45" stop-opacity=".92"/><stop offset=".79" stop-color="#b98a37" stop-opacity=".73"/><stop offset=".8" stop-color="#8d692a" stop-opacity=".56"/><stop offset=".82" stop-color="#674d1f" stop-opacity=".41"/><stop offset=".83" stop-color="#473515" stop-opacity=".28"/><stop offset=".85" stop-color="#2d210d" stop-opacity=".18"/><stop offset=".86" stop-color="#191307" stop-opacity=".1"/><stop offset=".88" stop-color="#0b0803" stop-opacity=".04"/><stop offset=".91" stop-color="#020201" stop-opacity=".01"/><stop offset=".95" stop-opacity="0"/></radialGradient><linearGradient id="j"><stop offset=".03" stop-color="#fff"/><stop offset=".1" stop-color="#c8c8c8" stop-opacity=".79"/><stop offset=".18" stop-color="#8c8c8c" stop-opacity=".55"/><stop offset=".26" stop-color="#5a5a5a" stop-opacity=".35"/><stop offset=".33" stop-color="#333" stop-opacity=".2"/><stop offset=".4" stop-color="#171717" stop-opacity=".09"/><stop offset=".46" stop-color="#060606" stop-opacity=".02"/><stop offset=".5" stop-opacity="0"/></linearGradient><radialGradient id="k" cx="0" cy="0" gradientTransform="matrix(1.72530099 -.81288774 60.15815078 127.6817357 49.0183 71.9305)" gradientUnits="userSpaceOnUse" r="1" xlink:href="#j"/><radialGradient id="l" cx="0" cy="0" gradientTransform="matrix(-92.37324206 -199.27426226 15799.46418836 -7323.81449251 71119.5 71153)" gradientUnits="userSpaceOnUse" r="1" xlink:href="#j"/><linearGradient id="m" gradientUnits="userSpaceOnUse" x1="-2.94608" x2="62.6043" xlink:href="#c" y1="95.3452" y2="106.777"/><linearGradient id="n" gradientUnits="userSpaceOnUse" x1="2073.65" x2="3142.01" xlink:href="#e" y1="-94.5303" y2="139.126"/><path d="m54.2228 77.844c-13.6525 1.4902-26.3254-12.5881-28.3169-31.4448-1.9914-18.8567 7.5267-35.3414 21.1931-36.83374 13.6664-1.49239 26.3254 12.58804 28.3169 31.44474 1.9914 18.8568-7.5606 35.3439-21.1931 36.8338z" fill="url(#a)"/><path d="m55.1848 77.7126 4.1833-.4789-5.4538-68.40993-7.0483.76722z" fill="#744818"/><path d="m60.6954 77.1391c-13.6585 1.4883-26.3254-12.5881-28.3169-31.4448-1.9914-18.8567 7.5027-35.349 21.1631-36.84333 13.6604-1.49431 26.3314 12.59003 28.3168 31.44483 1.9855 18.8548-7.5026 35.349-21.163 36.8433z" fill="url(#b)"/><path d="m60.4323 74.5908c-12.6364 1.3759-24.3614-11.6531-26.183-29.097-1.8217-17.4439 6.965-32.6977 19.5835-34.0793 12.6184-1.3817 24.3574 11.6452 26.1629 29.0773s-6.925 32.7171-19.5634 34.099z" fill="#fffa00"/><path d="m60.4323 74.5908c-12.6364 1.3759-24.3614-11.6531-26.183-29.097-1.8217-17.4439 6.965-32.6977 19.5835-34.0793 12.6184-1.3817 24.3574 11.6452 26.1629 29.0773s-6.925 32.7171-19.5634 34.099z" fill="url(#d)"/><path d="m59.8828 72.7104c-12.0667 1.3118-23.227-10.8972-24.9403-27.2942-1.7133-16.3971 6.6798-30.7313 18.7425-32.0511 12.0626-1.3199 23.2329 10.899 24.9403 27.2942 1.7073 16.3951-6.6798 30.7312-18.7425 32.0511z" fill="url(#f)"/><path d="m62.8873 68.6575c.619 2.7626.4081 5.6508-.6059 8.2989-1.0141 2.6482-2.7858 4.9373-5.091 6.5779-2.3052 1.6405-5.0402 2.5586-7.859 2.6382-2.8189.0796-5.5948-.6829-7.9766-2.191-2.3818-1.5082-4.2624-3.6942-5.4039-6.2815s-1.4925-5.4595-1.0087-8.2534c.4838-2.7938 1.7807-5.3836 3.7266-7.4417 1.946-2.0581 4.4535-3.492 7.2052-4.1202 3.6856-.8432 7.548-.1821 10.7384 1.8381 3.1903 2.0201 5.4473 5.2338 6.2749 8.9347z" fill="url(#g)"/><path d="m28.6414 73.303c.7709 11.2846 10.4996 19.7712 21.7297 18.9553s19.7089-10.6253 18.938-21.9099c-.7708-11.2846-10.4996-19.7712-21.7297-18.9553-11.23.8159-19.7089 10.6253-18.938 21.9099z" fill="url(#h)"/><path d="m57.1166 66.198c1.1014 1.6143 1.7007 3.5224 1.7219 5.483.0213 1.9606-.5364 3.8855-1.6026 5.5315-1.0661 1.646-2.5928 2.9389-4.3869 3.7154-1.7942.7765-3.7752 1.0016-5.6925.6469-1.9173-.3548-3.6848-1.2734-5.079-2.6398s-2.3525-3.1191-2.7536-5.0366c-.401-1.9174-.227-3.9134.5003-5.7355.7272-1.8221 1.9749-3.3884 3.5853-4.501 2.159-1.4916 4.8159-2.0623 7.3863-1.5867 2.5705.4756 4.8441 1.9586 6.3208 4.1228z" fill="url(#i)" opacity=".5"/><path d="m51.3246 70.7101c12.451 26.6595 21.5316 48.7779 20.2355 49.3949s-12.4687-20.5056-24.9257-47.1671c-12.4571-26.6614-21.5316-48.7775-20.2355-49.3948s12.4566 20.5017 24.9257 47.167z" fill="url(#k)"/><path d="m47.8758 69.4731c26.5771-12.6359 48.614-21.8174 49.2235-20.5169.6094 1.3005-20.4488 12.5931-47.018 25.225-26.5691 12.6318-48.61203 21.8113-49.223421 20.5169-.611391-1.2945 20.444721-12.6011 47.017921-25.225z" fill="url(#l)"/><path d="m69.0366 45.4736-2.5227-4.1178c-.3196 1.4727-.8782 2.874-1.6756 4.2038l2.4262 3.9602-3.485 2.5383-1.7985-2.9356c-1.6125 1.4952-3.2266 2.1431-4.8421 1.9436-1.6156-.1994-3.3153-1.2702-5.099-3.2123l-2.1689 17.9825-.2012.2533-3.9953-6.5215 2.3057-19.7951 2.517-3.2042 2.8607 4.6695c1.4887 2.4299 3.1359 3.0549 4.9415 1.8749l-5.9507-9.7132 3.4729-2.5581 5.2507 8.5706c.7649-2.1032.489-4.2571-.8277-6.4616l-3.2832-5.359 4.2041-3.2344 11.3584 18.54z" fill="url(#m)"/><path d="m69.7362 43.5628-2.4474-3.9948c-.3101 1.4287-.8519 2.7881-1.6255 4.0782l2.3537 3.8419-3.3809 2.4626-1.7448-2.848c-1.5644 1.4505-3.1302 2.0791-4.6975 1.8856s-3.2162-1.2323-4.9467-3.1164l-2.1041 17.4454-.1951.2457-3.876-6.3267 2.2368-19.2038 2.4418-3.1085 2.7753 4.53c1.4442 2.3573 3.0422 2.9637 4.7939 1.8189l-5.773-9.4231 3.3692-2.4817 5.0938 8.3146c.7421-2.0404.4744-4.1299-.8029-6.2686l-3.1851-5.1989 4.0785-3.1378 11.0191 17.9862z" fill="url(#n)"/></svg>