<svg fill="none" height="197" viewBox="0 0 193 197" width="193" xmlns="http://www.w3.org/2000/svg" xmlns:xlink="http://www.w3.org/1999/xlink"><radialGradient id="a" cx="0" cy="0" gradientTransform="matrix(40.9798887 10.40946932 -10.40890307 40.9776595 63.1025 87.9545)" gradientUnits="userSpaceOnUse" r="1"><stop offset="0" stop-color="#fffacb"/><stop offset=".11" stop-color="#faf1ba"/><stop offset=".34" stop-color="#efd88d"/><stop offset=".37" stop-color="#edd587"/><stop offset=".69" stop-color="#eab911"/><stop offset="1" stop-color="#854518"/></radialGradient><linearGradient id="b" gradientUnits="userSpaceOnUse" x1="18.5352" x2="112.181" y1="67.13" y2="91.1679"><stop offset=".01" stop-color="#fac825"/><stop offset=".25" stop-color="#fffacb"/><stop offset=".3" stop-color="#f8efba"/><stop offset=".41" stop-color="#e7d18d"/><stop offset=".55" stop-color="#cba145"/><stop offset=".6" stop-color="#c2912d"/><stop offset=".87" stop-color="#edd587"/><stop offset="1" stop-color="#fffacb"/></linearGradient><linearGradient id="c"><stop offset="0" stop-color="#fffacb"/><stop offset=".11" stop-color="#faf1ba"/><stop offset=".34" stop-color="#efd88d"/><stop offset=".37" stop-color="#edd587"/><stop offset=".69" stop-color="#cd6c1e"/><stop offset="1" stop-color="#774711"/></linearGradient><radialGradient id="d" cx="0" cy="0" gradientTransform="matrix(37.91211303 9.63021106 -9.62971867 37.91017459 65.3926 79.0326)" gradientUnits="userSpaceOnUse" r="1" xlink:href="#c"/><linearGradient id="e"><stop offset=".01" stop-color="#fcd030"/><stop offset=".25" stop-color="#fffad4"/><stop offset=".31" stop-color="#f9f0c3"/><stop offset=".41" stop-color="#ebd696"/><stop offset=".56" stop-color="#d4ac4e"/><stop offset=".6" stop-color="#cea13b"/><stop offset=".87" stop-color="#f1db98"/><stop offset="1" stop-color="#fffad4"/></linearGradient><linearGradient id="f" gradientUnits="userSpaceOnUse" x1="118" x2="48.8477" xlink:href="#e" y1="57.0153" y2="86.4637"/><radialGradient id="g" cx="0" cy="0" gradientTransform="matrix(2.67125054 -19.94652716 19.95911478 2.67293628 97.8292 101.84)" gradientUnits="userSpaceOnUse" r="1"><stop offset=".01" stop-color="#fff"/><stop offset=".02" stop-color="#f9f9f9" stop-opacity=".97"/><stop offset=".14" stop-color="#cecccc" stop-opacity=".74"/><stop offset=".26" stop-color="#a7a4a5" stop-opacity=".55"/><stop offset=".38" stop-color="#878284" stop-opacity=".38"/><stop offset=".5" stop-color="#6d6769" stop-opacity=".24"/><stop offset=".62" stop-color="#585154" stop-opacity=".14"/><stop offset=".74" stop-color="#4a4245" stop-opacity=".06"/><stop offset=".87" stop-color="#41393c" stop-opacity=".01"/><stop offset="1" stop-color="#3e3639" stop-opacity="0"/></radialGradient><radialGradient id="h" cx="0" cy="0" gradientTransform="matrix(3.86844416 -28.57594512 28.59388151 3.87087228 99.3394 102.533)" gradientUnits="userSpaceOnUse" r="1"><stop offset=".01" stop-color="#fcbc4b"/><stop offset=".02" stop-color="#f8b94b" stop-opacity=".98"/><stop offset=".13" stop-color="#cd9b47" stop-opacity=".75"/><stop offset=".25" stop-color="#a78043" stop-opacity=".55"/><stop offset=".37" stop-color="#876940" stop-opacity=".38"/><stop offset=".49" stop-color="#6c573d" stop-opacity=".24"/><stop offset=".62" stop-color="#58483b" stop-opacity=".14"/><stop offset=".74" stop-color="#4a3e3a" stop-opacity=".06"/><stop offset=".87" stop-color="#413839" stop-opacity=".02"/><stop offset="1" stop-color="#3e3639" stop-opacity="0"/></radialGradient><radialGradient id="i" cx="0" cy="0" gradientTransform="matrix(-3.37869208 -13.52404067 13.55275804 -3.3858665 99.3009 103.942)" gradientUnits="userSpaceOnUse" r="1"><stop offset="0" stop-opacity="0"/><stop offset=".57" stop-color="#121212" stop-opacity="0"/><stop offset=".59" stop-color="#1e1b15" stop-opacity=".05"/><stop offset=".62" stop-color="#3f331d" stop-opacity=".19"/><stop offset=".67" stop-color="#74592a" stop-opacity=".42"/><stop offset=".73" stop-color="#bc8d3b" stop-opacity=".73"/><stop offset=".78" stop-color="#e9ae45" stop-opacity=".92"/><stop offset=".79" stop-color="#b98a37" stop-opacity=".73"/><stop offset=".8" stop-color="#8d692a" stop-opacity=".56"/><stop offset=".82" stop-color="#674d1f" stop-opacity=".41"/><stop offset=".83" stop-color="#473515" stop-opacity=".28"/><stop offset=".85" stop-color="#2d210d" stop-opacity=".18"/><stop offset=".86" stop-color="#191307" stop-opacity=".1"/><stop offset=".88" stop-color="#0b0803" stop-opacity=".04"/><stop offset=".91" stop-color="#020201" stop-opacity=".01"/><stop offset=".95" stop-opacity="0"/></radialGradient><linearGradient id="j"><stop offset=".03" stop-color="#fff"/><stop offset=".1" stop-color="#c8c8c8" stop-opacity=".79"/><stop offset=".18" stop-color="#8c8c8c" stop-opacity=".55"/><stop offset=".26" stop-color="#5a5a5a" stop-opacity=".35"/><stop offset=".33" stop-color="#333" stop-opacity=".2"/><stop offset=".4" stop-color="#171717" stop-opacity=".09"/><stop offset=".46" stop-color="#060606" stop-opacity=".02"/><stop offset=".5" stop-opacity="0"/></linearGradient><radialGradient id="k" cx="0" cy="0" gradientTransform="matrix(-.19596122 -2.67314693 198.69981271 -14.5661497 104.068 104.893)" gradientUnits="userSpaceOnUse" r="1" xlink:href="#j"/><radialGradient id="l" cx="0" cy="0" gradientTransform="matrix(-195.14360426 14.6934724 -2291.77053844 -30436.94172234 89373.8 486458)" gradientUnits="userSpaceOnUse" r="1" xlink:href="#j"/><linearGradient id="m" gradientUnits="userSpaceOnUse" x1="113.404" x2="156.246" xlink:href="#c" y1="183.741" y2="94.1664"/><linearGradient id="n" gradientUnits="userSpaceOnUse" x1="678.985" x2="1445.24" xlink:href="#e" y1="-2875.99" y2="-4316.83"/><clipPath id="o"><path d="m0 0h136.205v148.587h-136.205z" transform="matrix(.86501572 -.50174476 .50174476 .86501572 0 68.3403)"/></clipPath><g clip-path="url(#o)"><path d="m109.933 99.9146c-4.826 18.8194-29.7284 28.7494-55.5948 22.1754-25.8664-6.575-42.9482-27.1603-38.1144-45.9837 4.8337-18.8235 29.7287-28.7495 55.6028-22.1795 25.874 6.5699 42.9404 27.1644 38.1064 45.9878z" fill="url(#a)"/><path d="m110.238 98.5815 1.452-5.7762-93.0542-26.0925-2.4962 9.7085z" fill="#744818"/><path d="m112.227 90.9889c-4.834 18.8231-29.7112 28.7801-55.603 22.1791-25.8919-6.6-42.9526-27.1672-38.11-45.9753 4.8426-18.8082 29.7364-28.7539 55.6028-22.1796 25.8664 6.5744 42.9362 27.1568 38.1102 45.9758z" fill="url(#b)"/><path d="m108.726 90.1022c-4.47 17.4148-27.5064 26.6008-51.4423 20.5238-23.9358-6.077-39.7395-25.1313-35.2646-42.5388 4.4749-17.4074 27.5021-26.6083 51.4501-20.5283 23.948 6.0801 39.7278 25.1282 35.2568 42.5433z" fill="#fffa00"/><path d="m108.726 90.1022c-4.47 17.4148-27.5064 26.6008-51.4423 20.5238-23.9358-6.077-39.7395-25.1313-35.2646-42.5388 4.4749-17.4074 27.5021-26.6083 51.4501-20.5283 23.948 6.0801 39.7278 25.1282 35.2568 42.5433z" fill="url(#d)"/><path d="m105.968 89.9109c-4.246 16.6701-25.9538 25.4741-48.4351 19.7821s-37.2755-23.8375-33.0077-40.4697c4.2679-16.6322 25.9579-25.4669 48.4481-19.7594s37.2637 23.8345 32.9947 40.447z" fill="url(#f)"/><path d="m102.126 83.9604c3.955.5322 7.66 2.2243 10.648 4.8621 2.987 2.6378 5.122 6.1029 6.135 9.957 1.013 3.8545.858 7.9245-.445 11.6955s-3.695 7.074-6.875 9.491-7.004 3.84-10.989 4.088c-3.9842.248-7.9504-.689-11.3966-2.693-3.4463-2.005-6.2177-4.986-7.9639-8.567-1.7462-3.582-2.3887-7.602-1.8462-11.553.7273-5.2972 3.5308-10.0935 7.7939-13.3341s9.6367-4.6602 14.9388-3.9465z" fill="url(#g)"/><path d="m126.621 113.368c5.252-15.0401-2.69-31.4578-17.738-36.6696-15.0481-5.2117-31.5036 2.7561-36.7547 17.7966-5.2511 15.041 2.6908 31.458 17.7387 36.67 15.048 5.212 31.503-2.756 36.754-17.797z" fill="url(#h)"/><path d="m96.0144 90.4432c2.6813-.6711 5.4996-.5331 8.0986.3964 2.6.9295 4.863 2.6088 6.503 4.8255 1.641 2.2166 2.585 4.8709 2.713 7.6269s-.565 5.49-1.992 7.856c-1.427 2.365-3.524 4.257-6.025 5.434-2.501 1.178-5.294 1.589-8.0252 1.181-2.7315-.408-5.2787-1.616-7.3192-3.472s-3.4827-4.276-4.1439-6.953c-.8829-3.585-.3061-7.3764 1.6042-10.5433 1.9102-3.1668 4.998-5.4509 8.5865-6.3515z" fill="url(#i)" opacity=".5"/><path d="m99.0714 100.278c41.4116-3.5481 75.1346-4.7654 75.3066-2.7358.171 2.0296-33.281 6.5088-74.6632 10.0198-41.3822 3.51-75.1608 4.79-75.351 2.782-.1902-2.009 33.2915-6.526 74.7076-10.066z" fill="url(#k)"/><path d="m95.7355 104.24c-3.4444-41.3222-4.6229-75.0221-2.5794-75.2145 2.0434-.1923 6.4598 33.2161 9.9069 74.5775 3.447 41.361 4.607 75.031 2.575 75.206-2.033.176-6.4402-33.217-9.9025-74.569z" fill="url(#l)"/><path d="m70.7583 60.2198-6.9331 1.9652c1.9872 1.0527 3.7754 2.4199 5.3647 4.1015l6.6677-1.89 2.2426 6.0302-4.9427 1.401c1.4985 2.9194 1.7789 5.4995.8413 7.7403-.9376 2.2409-3.1611 4.2514-6.6703 6.0316l24.963 10.363.2829.3912-10.9801 3.1123-27.5122-11.29-3.5894-4.9078 7.8619-2.2285c4.0913-1.1596 5.653-3.2744 4.6853-6.3442l-16.354 4.6356-2.2758-6.0208 14.43-4.0902c-2.7135-1.9465-5.9193-2.4181-9.6173-1.4148l-9.0229 2.5576-2.9529-7.3438 31.2153-8.8481z" fill="url(#m)"/><path d="m69.8332 58.8534-6.726 1.9065c1.9278 1.0213 3.6627 2.3476 5.2045 3.979l6.4685-1.8335 2.1756 5.85-4.795 1.3592c1.4537 2.8322 1.7257 5.3352.8161 7.5091s-3.0666 4.1244-6.471 5.8515l24.2173 10.0534.2744.3795-10.6521 3.0194-26.6904-10.9528-3.4821-4.7612 7.627-2.1619c3.9691-1.125 5.4842-3.1766 4.5454-6.1548l-15.8655 4.4972-2.2078-5.8409 13.999-3.9681c-2.6326-1.8884-5.7426-2.3459-9.3302-1.3725l-8.7534 2.4811-2.8646-7.1244 30.2829-8.5838z" fill="url(#n)"/></g></svg>