<svg fill="none" height="132" viewBox="0 0 121 132" width="121" xmlns="http://www.w3.org/2000/svg" xmlns:xlink="http://www.w3.org/1999/xlink"><radialGradient id="a" cx="0" cy="0" gradientTransform="matrix(26.8511503 26.26531906 -26.26392053 26.84972058 39.7484 43.1995)" gradientUnits="userSpaceOnUse" r="1"><stop offset="0" stop-color="#fffacb"/><stop offset=".11" stop-color="#faf1ba"/><stop offset=".34" stop-color="#efd88d"/><stop offset=".37" stop-color="#edd587"/><stop offset=".69" stop-color="#eab911"/><stop offset="1" stop-color="#854518"/></radialGradient><linearGradient id="b" gradientUnits="userSpaceOnUse" x1="14.7828" x2="76.0306" y1="7.33178" y2="67.5449"><stop offset=".01" stop-color="#fac825"/><stop offset=".25" stop-color="#fffacb"/><stop offset=".3" stop-color="#f8efba"/><stop offset=".41" stop-color="#e7d18d"/><stop offset=".55" stop-color="#cba145"/><stop offset=".6" stop-color="#c2912d"/><stop offset=".87" stop-color="#edd587"/><stop offset="1" stop-color="#fffacb"/></linearGradient><linearGradient id="c"><stop offset="0" stop-color="#fffacb"/><stop offset=".11" stop-color="#faf1ba"/><stop offset=".34" stop-color="#efd88d"/><stop offset=".37" stop-color="#edd587"/><stop offset=".69" stop-color="#cd6c1e"/><stop offset="1" stop-color="#774711"/></linearGradient><radialGradient id="d" cx="0" cy="0" gradientTransform="matrix(24.84110101 24.29912449 -24.29786581 24.83981426 45.4851 37.3642)" gradientUnits="userSpaceOnUse" r="1" xlink:href="#c"/><linearGradient id="e"><stop offset=".01" stop-color="#fcd030"/><stop offset=".25" stop-color="#fffad4"/><stop offset=".31" stop-color="#f9f0c3"/><stop offset=".41" stop-color="#ebd696"/><stop offset=".56" stop-color="#d4ac4e"/><stop offset=".6" stop-color="#cea13b"/><stop offset=".87" stop-color="#f1db98"/><stop offset="1" stop-color="#fffad4"/></linearGradient><linearGradient id="f" gradientUnits="userSpaceOnUse" x1="95.7254" x2="29.4588" xlink:href="#e" y1="43.894" y2="35.7"/><radialGradient id="g" cx="0" cy="0" gradientTransform="matrix(10.94354277 -14.1372471 14.14618272 10.95045976 60.2449 69.3487)" gradientUnits="userSpaceOnUse" r="1"><stop offset=".01" stop-color="#fff"/><stop offset=".02" stop-color="#f9f9f9" stop-opacity=".97"/><stop offset=".14" stop-color="#cecccc" stop-opacity=".74"/><stop offset=".26" stop-color="#a7a4a5" stop-opacity=".55"/><stop offset=".38" stop-color="#878284" stop-opacity=".38"/><stop offset=".5" stop-color="#6d6769" stop-opacity=".24"/><stop offset=".62" stop-color="#585154" stop-opacity=".14"/><stop offset=".74" stop-color="#4a4245" stop-opacity=".06"/><stop offset=".87" stop-color="#41393c" stop-opacity=".01"/><stop offset="1" stop-color="#3e3639" stop-opacity="0"/></radialGradient><radialGradient id="h" cx="0" cy="0" gradientTransform="matrix(15.71001242 -20.23491577 20.24755395 15.71982447 61.0965 70.5545)" gradientUnits="userSpaceOnUse" r="1"><stop offset=".01" stop-color="#fcbc4b"/><stop offset=".02" stop-color="#f8b94b" stop-opacity=".98"/><stop offset=".13" stop-color="#cd9b47" stop-opacity=".75"/><stop offset=".25" stop-color="#a78043" stop-opacity=".55"/><stop offset=".37" stop-color="#876940" stop-opacity=".38"/><stop offset=".49" stop-color="#6c573d" stop-opacity=".24"/><stop offset=".62" stop-color="#58483b" stop-opacity=".14"/><stop offset=".74" stop-color="#4a3e3a" stop-opacity=".06"/><stop offset=".87" stop-color="#413839" stop-opacity=".02"/><stop offset="1" stop-color="#3e3639" stop-opacity="0"/></radialGradient><radialGradient id="i" cx="0" cy="0" gradientTransform="matrix(3.43169636 -11.89850967 11.92387573 3.43901229 60.4389 71.62)" gradientUnits="userSpaceOnUse" r="1"><stop offset="0" stop-opacity="0"/><stop offset=".57" stop-color="#121212" stop-opacity="0"/><stop offset=".59" stop-color="#1e1b15" stop-opacity=".05"/><stop offset=".62" stop-color="#3f331d" stop-opacity=".19"/><stop offset=".67" stop-color="#74592a" stop-opacity=".42"/><stop offset=".73" stop-color="#bc8d3b" stop-opacity=".73"/><stop offset=".78" stop-color="#e9ae45" stop-opacity=".92"/><stop offset=".79" stop-color="#b98a37" stop-opacity=".73"/><stop offset=".8" stop-color="#8d692a" stop-opacity=".56"/><stop offset=".82" stop-color="#674d1f" stop-opacity=".41"/><stop offset=".83" stop-color="#473515" stop-opacity=".28"/><stop offset=".85" stop-color="#2d210d" stop-opacity=".18"/><stop offset=".86" stop-color="#191307" stop-opacity=".1"/><stop offset=".88" stop-color="#0b0803" stop-opacity=".04"/><stop offset=".91" stop-color="#020201" stop-opacity=".01"/><stop offset=".95" stop-opacity="0"/></radialGradient><linearGradient id="j"><stop offset=".03" stop-color="#fff"/><stop offset=".1" stop-color="#c8c8c8" stop-opacity=".79"/><stop offset=".18" stop-color="#8c8c8c" stop-opacity=".55"/><stop offset=".26" stop-color="#5a5a5a" stop-opacity=".35"/><stop offset=".33" stop-color="#333" stop-opacity=".2"/><stop offset=".4" stop-color="#171717" stop-opacity=".09"/><stop offset=".46" stop-color="#060606" stop-opacity=".02"/><stop offset=".5" stop-opacity="0"/></linearGradient><radialGradient id="k" cx="0" cy="0" gradientTransform="matrix(1.04092912 -2.14153016 159.18361824 77.37405088 63.6783 74.4758)" gradientUnits="userSpaceOnUse" r="1" xlink:href="#j"/><radialGradient id="l" cx="0" cy="0" gradientTransform="matrix(-156.50721 -75.69224344 11805.85657429 -24410.71357083 -148121 413603)" gradientUnits="userSpaceOnUse" r="1" xlink:href="#j"/><linearGradient id="m" gradientUnits="userSpaceOnUse" x1="35.7077" x2="108.556" xlink:href="#c" y1="139.228" y2="89.49"/><linearGradient id="n" gradientUnits="userSpaceOnUse" x1="1834.15" x2="3065.22" xlink:href="#e" y1="-1959.92" y2="-2725.6"/><clipPath id="o"><path d="m0 0h121v132h-121z"/></clipPath><g clip-path="url(#o)"><path d="m70.4046 73.2644c-12.0968 12.3103-35.6597 8.8414-52.6063-7.7402-16.946618-16.5816-20.89741-40.0146-8.79268-52.3249 12.10468-12.310372 35.65968-8.84145 52.61418 7.7402 16.9545 16.5816 20.8895 40.0145 8.7848 52.3249z" fill="url(#a)"/><path d="m71.2326 72.3755 3.6906-3.7914-59.877-61.52819-6.2456 6.34789z" fill="#744818"/><path d="m76.1455 67.4277c-12.1048 12.3103-35.6597 8.8729-52.6142-7.7402-16.95452-16.6131-20.89743-40.0224-8.7927-52.31702 12.1047-12.29461 35.6676-8.84142 52.6142 7.74022 16.9466 16.5816 20.8895 40.0066 8.7927 52.317z" fill="url(#b)"/><path d="m73.8507 65.1859c-11.1979 11.39-32.9943 8.1807-48.6792-7.1581-15.68485-15.3388-19.33598-37.0255-8.1381-48.40762 11.1978-11.38216 32.9942-8.18855 48.687 7.15812 15.6928 15.3466 19.3282 37.0176 8.1303 48.4076z" fill="#fffa00"/><path d="m73.8507 65.1859c-11.1979 11.39-32.9943 8.1807-48.6792-7.1581-15.68485-15.3388-19.33598-37.0255-8.1381-48.40762 11.1978-11.38216 32.9942-8.18855 48.687 7.15812 15.6928 15.3466 19.3282 37.0176 8.1303 48.4076z" fill="url(#d)"/><path d="m71.8162 63.8093c-10.6932 10.918-31.2988 8.0076-46.0374-6.3873-14.7386-14.3948-18.01914-34.933-7.326-45.8118 10.6932-10.878714 31.2988-7.99974 46.0374 6.4108 14.7386 14.4106 18.0113 34.9253 7.326 45.7883z" fill="url(#f)"/><path d="m71.5165 57.5243c2.8019 2.1719 4.8951 5.1238 6.015 8.4824s1.2162 6.973.2767 10.3862c-.9396 3.4132-2.8728 6.4718-5.5551 8.789s-5.9933 3.7889-9.5142 4.229c-3.5208.4402-7.0935-.1711-10.2661-1.7565-3.1726-1.5853-5.8026-4.0735-7.5574-7.1499s-2.5557-6.6028-2.3012-10.1332 1.5528-6.9063 3.7307-9.7006c2.92-3.7464 7.2122-6.1824 11.9326-6.7725 4.7204-.59 9.4825.7143 13.239 3.6261z" fill="url(#g)"/><path d="m77.2318 91.0414c10.7393-9.2174 11.9543-25.3735 2.7138-36.0859-9.2405-10.7123-25.4373-11.9243-36.1766-2.7069-10.7392 9.2173-11.9542 25.3735-2.7138 36.0858 9.2405 10.7123 25.4373 11.9246 36.1766 2.707z" fill="url(#h)"/><path d="m63.9303 59.7819c2.3596.6794 4.464 2.0418 6.047 3.9146 1.5831 1.8729 2.5736 4.1721 2.8462 6.6066.2726 2.4346-.185 4.8951-1.3148 7.0702s-2.8811 3.967-5.0322 5.1489c-2.1512 1.1819-4.6054 1.7007-7.0523 1.4908-2.4468-.2099-4.7762-1.1392-6.6934-2.6701-1.9172-1.531-3.336-3.5948-4.0769-5.9304s-.7705-4.8379-.0851-7.1903c.9194-3.1483 3.0526-5.8046 5.9321-7.3868 2.8795-1.5821 6.2704-1.9609 9.4294-1.0535z" fill="url(#i)" opacity=".5"/><path d="m61.8958 68.702c33.4043 15.7321 59.8612 29.828 59.0882 31.464s-28.4754-9.8324-61.8403-25.5802-59.89284-29.8202-59.14368769-31.4484c.74915269-1.6283 28.49148769 9.8246 61.89578769 25.5646z" fill="url(#k)"/><path d="m57.5665 70.2594c15.7716-33.2891 29.8872-59.7111 31.5433-58.9481 1.656.763-9.8415 28.4042-25.6289 61.7248-15.7875 33.3209-29.9031 59.7109-31.5433 58.9399-1.6403-.771 9.8573-28.396 25.6289-61.7166z" fill="url(#l)"/><path d="m57.9938 25.2991-6.2036-1.5801c1.0578 1.6946 1.8226 3.5423 2.2943 5.543l5.9662 1.5197-.9645 5.6334-4.4227-1.1265c-.1497 2.9114-1.0843 5.019-2.8036 6.3231-1.7194 1.304-4.3241 1.8579-7.8143 1.6618l14.5637 19.0903.043.4266-9.8249-2.5025-16.1094-20.9389-.5707-5.3713 7.0347 1.7918c3.6609.9325 5.8037.0035 6.4283-2.7868l-14.6335-3.7273.9349-5.641 12.9119 3.2888c-1.2176-2.7054-3.4709-4.4967-6.7599-5.374l-8.0736-2.0565 1.0042-6.9595 27.9313 7.1144z" fill="url(#m)"/><path d="m57.892 23.8367-6.0183-1.5329c1.0262 1.6441 1.7681 3.4366 2.2258 5.3775l5.788 1.4742-.9357 5.4652-4.2906-1.0928c-.1453 2.8243-1.0519 4.8691-2.7199 6.1341-1.668 1.2651-4.195 1.8025-7.5809 1.6122l14.1287 18.5201.0417.4139-9.5314-2.4277-15.6282-20.3135-.5537-5.2109 6.8246 1.7383c3.5515.9046 5.6303.0034 6.2363-2.7036l-14.1964-3.6159.9069-5.4726 12.5262 3.1906c-1.1812-2.6246-3.3672-4.3624-6.5579-5.2135l-7.8325-1.995.9743-6.7517 27.097 6.9019z" fill="url(#n)"/></g></svg>