<svg fill="none" height="80" viewBox="0 0 105 80" width="105" xmlns="http://www.w3.org/2000/svg" xmlns:xlink="http://www.w3.org/1999/xlink"><radialGradient id="a" cx="0" cy="0" gradientTransform="matrix(28.26531594 -12.4120782 12.35968858 28.14601205 36.6543 47.1465)" gradientUnits="userSpaceOnUse" r="1"><stop offset="0" stop-color="#fffacb"/><stop offset=".11" stop-color="#faf1ba"/><stop offset=".34" stop-color="#efd88d"/><stop offset=".37" stop-color="#edd587"/><stop offset=".69" stop-color="#eab911"/><stop offset="1" stop-color="#854518"/></radialGradient><linearGradient id="b" gradientUnits="userSpaceOnUse" x1="1.61784" x2="66.1169" y1="55.219" y2="26.5386"><stop offset=".01" stop-color="#fac825"/><stop offset=".25" stop-color="#fffacb"/><stop offset=".3" stop-color="#f8efba"/><stop offset=".41" stop-color="#e7d18d"/><stop offset=".55" stop-color="#cba145"/><stop offset=".6" stop-color="#c2912d"/><stop offset=".87" stop-color="#edd587"/><stop offset="1" stop-color="#fffacb"/></linearGradient><linearGradient id="c"><stop offset="0" stop-color="#fffacb"/><stop offset=".11" stop-color="#faf1ba"/><stop offset=".34" stop-color="#efd88d"/><stop offset=".37" stop-color="#edd587"/><stop offset=".69" stop-color="#cd6c1e"/><stop offset="1" stop-color="#774711"/></linearGradient><radialGradient id="d" cx="0" cy="0" gradientTransform="matrix(26.15346316 -11.48470552 11.43621597 26.04304068 33.9338 41.0284)" gradientUnits="userSpaceOnUse" r="1" xlink:href="#c"/><linearGradient id="e"><stop offset=".01" stop-color="#fcd030"/><stop offset=".25" stop-color="#fffad4"/><stop offset=".31" stop-color="#f9f0c3"/><stop offset=".41" stop-color="#ebd696"/><stop offset=".56" stop-color="#d4ac4e"/><stop offset=".6" stop-color="#cea13b"/><stop offset=".87" stop-color="#f1db98"/><stop offset="1" stop-color="#fffad4"/></linearGradient><linearGradient id="f" gradientUnits="userSpaceOnUse" x1="54.2161" x2="28.0716" xlink:href="#e" y1="4.89038" y2="52.83"/><radialGradient id="g" cx="0" cy="0" gradientTransform="matrix(-7.51750356 -12.59722875 12.6349265 -7.54000001 63.9951 35.9232)" gradientUnits="userSpaceOnUse" r="1"><stop offset=".01" stop-color="#fff"/><stop offset=".02" stop-color="#f9f9f9" stop-opacity=".97"/><stop offset=".14" stop-color="#cecccc" stop-opacity=".74"/><stop offset=".26" stop-color="#a7a4a5" stop-opacity=".55"/><stop offset=".38" stop-color="#878284" stop-opacity=".38"/><stop offset=".5" stop-color="#6d6769" stop-opacity=".24"/><stop offset=".62" stop-color="#585154" stop-opacity=".14"/><stop offset=".74" stop-color="#4a4245" stop-opacity=".06"/><stop offset=".87" stop-color="#41393c" stop-opacity=".01"/><stop offset="1" stop-color="#3e3639" stop-opacity="0"/></radialGradient><radialGradient id="h" cx="0" cy="0" gradientTransform="matrix(-10.67015079 -18.06597955 18.12099969 -10.70264685 64.7925 39.9317)" gradientUnits="userSpaceOnUse" r="1"><stop offset=".01" stop-color="#fcbc4b"/><stop offset=".02" stop-color="#f8b94b" stop-opacity=".98"/><stop offset=".13" stop-color="#cd9b47" stop-opacity=".75"/><stop offset=".25" stop-color="#a78043" stop-opacity=".55"/><stop offset=".37" stop-color="#876940" stop-opacity=".38"/><stop offset=".49" stop-color="#6c573d" stop-opacity=".24"/><stop offset=".62" stop-color="#58483b" stop-opacity=".14"/><stop offset=".74" stop-color="#4a3e3a" stop-opacity=".06"/><stop offset=".87" stop-color="#413839" stop-opacity=".02"/><stop offset="1" stop-color="#3e3639" stop-opacity="0"/></radialGradient><radialGradient id="i" cx="0" cy="0" gradientTransform="matrix(-8.06340672 -6.20876239 6.19893994 -8.05065017 64.7183 40.0214)" gradientUnits="userSpaceOnUse" r="1"><stop offset="0" stop-opacity="0"/><stop offset=".57" stop-color="#121212" stop-opacity="0"/><stop offset=".59" stop-color="#1e1b15" stop-opacity=".05"/><stop offset=".62" stop-color="#3f331d" stop-opacity=".19"/><stop offset=".67" stop-color="#74592a" stop-opacity=".42"/><stop offset=".73" stop-color="#bc8d3b" stop-opacity=".73"/><stop offset=".78" stop-color="#e9ae45" stop-opacity=".92"/><stop offset=".79" stop-color="#b98a37" stop-opacity=".73"/><stop offset=".8" stop-color="#8d692a" stop-opacity=".56"/><stop offset=".82" stop-color="#674d1f" stop-opacity=".41"/><stop offset=".83" stop-color="#473515" stop-opacity=".28"/><stop offset=".85" stop-color="#2d210d" stop-opacity=".18"/><stop offset=".86" stop-color="#191307" stop-opacity=".1"/><stop offset=".88" stop-color="#0b0803" stop-opacity=".04"/><stop offset=".91" stop-color="#020201" stop-opacity=".01"/><stop offset=".95" stop-opacity="0"/></radialGradient><linearGradient id="j"><stop offset=".03" stop-color="#fff"/><stop offset=".1" stop-color="#c8c8c8" stop-opacity=".79"/><stop offset=".18" stop-color="#8c8c8c" stop-opacity=".55"/><stop offset=".26" stop-color="#5a5a5a" stop-opacity=".35"/><stop offset=".33" stop-color="#333" stop-opacity=".2"/><stop offset=".4" stop-color="#171717" stop-opacity=".09"/><stop offset=".46" stop-color="#060606" stop-opacity=".02"/><stop offset=".5" stop-opacity="0"/></linearGradient><radialGradient id="k" cx="0" cy="0" gradientTransform="matrix(-1.33702969 -1.43499345 106.19744617 -98.94758676 64.8375 39.9288)" gradientUnits="userSpaceOnUse" r="1" xlink:href="#j"/><radialGradient id="l" cx="0" cy="0" gradientTransform="matrix(-166.21936151 152.9429403 -12126.10949767 -13178.73302486 47403.9 -91852.3)" gradientUnits="userSpaceOnUse" r="1" xlink:href="#j"/><linearGradient id="m" gradientUnits="userSpaceOnUse" x1="104.061" x2="94.7079" xlink:href="#c" y1="83.484" y2="15.698"/><linearGradient id="n" gradientUnits="userSpaceOnUse" x1="-732.908" x2="-838.981" xlink:href="#e" y1="-1890.88" y2="-3010.52"/><clipPath id="o"><path d="m0 0h105v80h-105z"/></clipPath><g clip-path="url(#o)"><path d="m68.9978 32.9775c5.7394 12.9045-4.0764 29.7302-21.921 37.5922-17.8446 7.8619-36.974 3.7074-42.72001-9.2101-5.74601-12.9174 4.07634-29.7302 21.92091-37.5921 17.8446-7.862 36.9871-3.675 42.7201 9.21z" fill="url(#a)"/><path d="m68.5673 32.0766-1.7805-3.9472-65.29321 26.7876 2.96105 6.6629z" fill="#744818"/><path d="m66.278 26.8589c5.7395 12.911-4.0763 29.7303-21.9209 37.5922s-36.97403 3.7333-42.72004-9.1777c-5.74601-12.9109 4.07634-29.7367 21.92094-37.5921 17.8446-7.85549 36.974-3.7333 42.72 9.1776z" fill="url(#b)"/><path d="m63.8649 27.9156c5.309 11.9452-3.7764 27.5135-20.2904 34.7662-16.5141 7.2527-34.20869 3.4287-39.51771-8.4971-5.30903-11.9258 3.7698-27.5071 20.27731-34.7403 16.5076-7.2333 34.2152-3.4741 39.5308 8.4712z" fill="#fffa00"/><path d="m63.8649 27.9156c5.309 11.9452-3.7764 27.5135-20.2904 34.7662-16.5141 7.2527-34.20869 3.4287-39.51771-8.4971-5.30903-11.9258 3.7698-27.5071 20.27731-34.7403 16.5076-7.2333 34.2152-3.4741 39.5308 8.4712z" fill="url(#d)"/><path d="m62.1952 29.0433c5.0677 11.4073-3.3915 26.1654-18.9142 32.9839-15.5227 6.8184-32.1933 3.0916-37.26757-8.3092-5.074226-11.4008 3.39152-26.1719 18.91427-32.9839 15.5227-6.8119 32.1933-3.0916 37.2675 8.3092z" fill="url(#f)"/><path d="m57.284 27.371c2.5118-1.4724 5.4066-2.1712 8.3182-2.0082s5.7091 1.1807 8.0385 2.9242c2.3295 1.7434 4.0861 4.1344 5.0478 6.8703.9616 2.7359 1.085 5.6938.3546 8.4994-.7305 2.8056-2.282 5.3328-4.4582 7.2619s-4.8794 3.1734-7.7674 3.5754c-2.888.4019-5.8311-.0564-8.4569-1.3171-2.6258-1.2608-4.8163-3.2672-6.2943-5.7654-1.9813-3.3454-2.5446-7.3357-1.5661-11.0937.9784-3.758 3.4185-6.9761 6.7838-8.9468z" fill="url(#g)"/><path d="m72.5697 59.4562c10.8109-4.2926 16.073-16.4818 11.7534-27.2251-4.3197-10.7433-16.5854-15.9726-27.3963-11.68-10.8109 4.2927-16.073 16.4818-11.7534 27.2252 4.3197 10.7433 16.5854 15.9726 27.3963 11.6799z" fill="url(#h)"/><path d="m56.684 33.7942c1.2358-1.5849 2.9168-2.77 4.8304-3.4054 1.9136-.6355 3.9738-.6927 5.9201-.1645 1.9464.5282 3.6913 1.6182 5.0143 3.132s2.1645 3.3835 2.4181 5.3726-.092 4.0082-.9933 5.8021c-.9012 1.7939-2.3175 3.2819-4.0697 4.2758-1.7522.994-3.7618 1.4492-5.7744 1.3081-2.0126-.141-3.9379-.872-5.5324-2.1005-2.1377-1.647-3.5296-4.0703-3.8696-6.737-.3401-2.6667.3997-5.3584 2.0565-7.4832z" fill="url(#i)" opacity=".5"/><path d="m62.9191 38.0525c22.2079-20.5525 41.0239-36.38012 42.0349-35.30421 1.011 1.07592-16.1746 18.64051-38.3825 39.19951-22.2079 20.5591-41.0243 36.3802-42.0352 35.3043-1.0109-1.076 16.1749-18.6276 38.3828-39.1996z" fill="url(#k)"/><path d="m62.7887 41.8181c-20.7078-22.0692-36.6088-40.77453-35.5261-41.7791447 1.0826-1.0046183 18.7446 16.0803447 39.4459 38.1430447s36.6025 40.7746 35.5265 41.7792c-1.077 1.0046-18.7516-16.0739-39.4463-38.1431z" fill="url(#l)"/><path d="m32.649 28.6162-3.2423 3.7618c1.5426-.1487 3.0902-.0409 4.6427.3232l3.1181-3.6178 3.5787 2.6176-2.3115 2.6818c1.97 1.1106 3.1105 2.4884 3.4216 4.1332.3111 1.6449-.2048 3.6453-1.5477 6.0012l18.2926-3.5132.3111.1177-5.1348 5.9576-20.1108 3.9474-3.9274-1.4608 3.6766-4.2657c1.9133-2.2199 2.009-4.0291.2873-5.4277l-7.648 8.8734-3.5942-2.5995 6.7483-7.8296c-2.2997-.0898-4.3228.8557-6.0692 2.8363l-4.2196 4.8957-4.4858-3.1037 14.5979-16.9369z" fill="url(#m)"/><path d="m30.5582 28.53-3.1454 3.6494c1.4965-.1442 2.9978-.0397 4.5039.3136l3.025-3.5097 3.4718 2.5394-2.2424 2.6017c1.9111 1.0774 3.0176 2.414 3.3194 4.0098.3018 1.5957-.1987 3.5363-1.5015 5.8219l17.7462-3.4083.3018.1142-4.9814 5.7796-19.5102 3.8295-3.81-1.4171 3.5668-4.1384c1.8561-2.1535 1.949-3.9087.2787-5.2655l-7.4196 8.6084-3.4868-2.5219 6.5467-7.5957c-2.231-.0871-4.1937.8301-5.8879 2.7516l-4.0936 4.7494-4.3518-3.0109 14.1619-16.4311z" fill="url(#n)"/></g></svg>