<svg fill="none" height="74" viewBox="0 0 75 74" width="75" xmlns="http://www.w3.org/2000/svg" xmlns:xlink="http://www.w3.org/1999/xlink"><linearGradient id="a"><stop offset=".16" stop-color="#f2352f"/><stop offset=".41" stop-color="#ef352f"/><stop offset=".58" stop-color="#e6342f"/><stop offset=".73" stop-color="#d7322f"/><stop offset=".85" stop-color="#c4302f"/></linearGradient><radialGradient id="b" cx="0" cy="0" gradientTransform="matrix(29.15164144 -7.81115878 7.81115878 29.15164144 37.0361 36.899)" gradientUnits="userSpaceOnUse" r="1" xlink:href="#a"/><radialGradient id="c" cx="0" cy="0" gradientTransform="matrix(2089.02710303 -559.75312522 234.09664991 873.66059136 1958.78 -407.378)" gradientUnits="userSpaceOnUse" r="1" xlink:href="#a"/><linearGradient id="d" gradientUnits="userSpaceOnUse" x1="30.8391" x2="29.9668" y1="-7.90366" y2="23.73"><stop offset="0" stop-color="#fff"/><stop offset="1" stop-color="#fff" stop-opacity="0"/></linearGradient><radialGradient id="e" cx="0" cy="0" gradientTransform="matrix(510.3237281 -136.74083082 311.17037336 1161.30364317 1334.19 384.479)" gradientUnits="userSpaceOnUse" r="1" xlink:href="#a"/><radialGradient id="f" cx="0" cy="0" gradientTransform="matrix(77.12917723 -20.66670075 20.66670075 77.12917723 58.0552 81.7678)" gradientUnits="userSpaceOnUse" r="1"><stop offset=".16" stop-color="#f2352f"/><stop offset=".36" stop-color="#ef352f"/><stop offset=".5" stop-color="#e6342f"/><stop offset=".62" stop-color="#d7322f"/><stop offset=".73" stop-color="#c2302f"/><stop offset=".83" stop-color="#a62d2f"/><stop offset=".85" stop-color="#9e2c2f"/></radialGradient><linearGradient id="g"><stop offset=".16" stop-color="#fff"/><stop offset=".38" stop-color="#fcfcfc"/><stop offset=".54" stop-color="#f3f3f3"/><stop offset=".67" stop-color="#e4e4e4"/><stop offset=".78" stop-color="#cfcfcf"/><stop offset=".85" stop-color="#bfbfbf"/></linearGradient><radialGradient id="h" cx="0" cy="0" gradientTransform="matrix(5.19512492 -2.47700149 3.23340662 6.7815669 48.377 12.3558)" gradientUnits="userSpaceOnUse" r="1" xlink:href="#g"/><radialGradient id="i" cx="0" cy="0" gradientTransform="matrix(41.65217052 -11.16066545 5.43918576 20.29931761 -1382.32 1448.75)" gradientUnits="userSpaceOnUse" r="1" xlink:href="#g"/><radialGradient id="j" cx="0" cy="0" gradientTransform="matrix(41.65217052 -11.16066545 5.45093615 20.34317064 -1511.6 1492.4)" gradientUnits="userSpaceOnUse" r="1" xlink:href="#g"/><radialGradient id="k" cx="0" cy="0" gradientTransform="matrix(64.78781124 -65.65087705 89.11002907 87.93856232 4049.61 6780.27)" gradientUnits="userSpaceOnUse" r="1" xlink:href="#g"/><radialGradient id="l" cx="0" cy="0" gradientTransform="matrix(64.78781124 -65.65087705 89.11002907 87.93856232 4175.24 6847.78)" gradientUnits="userSpaceOnUse" r="1" xlink:href="#g"/><radialGradient id="m" cx="0" cy="0" gradientTransform="matrix(64.78781124 -65.65087705 89.11002907 87.93856232 4204.41 6773.52)" gradientUnits="userSpaceOnUse" r="1" xlink:href="#g"/><radialGradient id="n" cx="0" cy="0" gradientTransform="matrix(64.82911311 -65.69272912 89.2417065 88.06850868 4305.2 6925.16)" gradientUnits="userSpaceOnUse" r="1" xlink:href="#g"/><radialGradient id="o" cx="0" cy="0" gradientTransform="matrix(64.8891694 -65.75358544 89.17124128 87.99896982 4148.58 6919.81)" gradientUnits="userSpaceOnUse" r="1" xlink:href="#g"/><radialGradient id="p" cx="0" cy="0" gradientTransform="matrix(69.67054957 -8.2141319 15.69526543 133.12396012 -884.194 -1868.33)" gradientUnits="userSpaceOnUse" r="1" xlink:href="#g"/><clipPath id="q"><path d="m0 0h60.55v60.17h-60.55z" transform="matrix(.96592583 -.25881905 .25881905 .96592583 0 15.6714)"/></clipPath><g clip-path="url(#q)"><path d="m67.3271 39.7151-9.0687 20.247c-.1611.447-.4005.8618-.7071 1.2248-1.2034 1.4131-2.8772 2.3433-4.7127 2.619-.59.118-1.1863.2018-1.786.2508l-25.6135-.4667s-4.3003-.4006-7.1711-5.6671l-11.94313-20.2695c-.38341-.4764-.67618-1.019-.8638-1.601-.28907-.8837-.39923-1.816-.32402-2.7427.0752-.9267.33425-1.8291.76203-2.6546.38927-.829.87527-1.6091 1.44786-2.3239l3.18606-4.2598 9.0503-11.3905c1.7713-2.0032 4.1121-3.41778 6.7092-4.0546l25.1892-3.70571c.9601-.20178 1.9575-.13204 2.8803.20139.8526.30004 1.6177.80633 2.2273 1.47374.5916.67781 1.0647 1.45056 1.3992 2.28573l8.5029 21.53305s2.4232 5.759.8357 9.3006z" fill="url(#b)"/><path d="m54.362 5.12203c-.1109.36144-.2824.70144-.5071 1.00549l-10.9849 18.23438c-3.0602 4.9611-10.495 5.535-10.495 5.535l-24.01469 2.2936c-.52339.1019-1.066.0058-1.52247-.2698-.45648-.2756-.79425-.7111-.94772-1.2217.38926-.8291.87526-1.6091 1.44786-2.3239l3.19502-4.3036 9.0503-11.3905c1.7713-2.0032 4.1121-3.41784 6.7092-4.05465l25.1892-3.70572c.9601-.20177 1.9575-.13203 2.8803.2014z" fill="url(#c)"/><path d="m54.362 5.12203c-.1109.36144-.2824.70144-.5071 1.00549l-10.9849 18.23438c-3.0602 4.9611-10.495 5.535-10.495 5.535l-24.01469 2.2936c-.52339.1019-1.066.0058-1.52247-.2698-.45648-.2756-.79425-.7111-.94772-1.2217.38926-.8291.87526-1.6091 1.44786-2.3239l3.19502-4.3036 9.0503-11.3905c1.7713-2.0032 4.1121-3.41784 6.7092-4.05465l25.1892-3.70572c.9601-.20177 1.9575-.13203 2.8803.2014z" fill="url(#d)"/><path d="m67.3271 39.7152-9.0687 20.2471c-.1611.447-.4005.8617-.7071 1.2247-.9892.1719-2.1674-.3614-3.3355-2.7504l-9.8884-21.99s-2.7804-6.0878-.2319-10.7565l11.0108-18.13784c.3906-.44805.908-.76714 1.4837-.91519.5916.6778 1.0647 1.45055 1.3992 2.28572l8.5029 21.53301s2.4224 5.7179.835 9.2594z" fill="url(#e)"/><path d="m52.8527 63.7814c-.59.1181-1.1863.2018-1.786.2508l-25.6276-.4421s-4.3003-.4007-7.1711-5.6671l-11.94314-20.2696c-.38341-.4763-.67619-1.019-.8638-1.601.20212-.7612.63943-1.4393 1.24956-1.9374.61014-.4981 1.36196-.7908 2.14827-.8365l24.81001-1.8752c1.9803.197 3.8751.9063 5.4979 2.058 1.6229 1.1517 2.9179 2.7061 3.7575 4.5103l10.0047 20.6854s2.0693 2.8931-.0763 5.1244z" fill="url(#f)"/><path d="m47.8397 8.7539c.4424.91675-.8795 2.5133-2.9538 3.5039s-4.1329 1.0349-4.583.0892.8163-2.51705 2.9054-3.49094c2.0892-.97389 4.1356-1.02529 4.6314-.10216z" fill="url(#h)"/><path d="m33.9973 16.1692c.4423.9168-.8725 2.501-2.9564 3.4942-2.0839.9933-4.1233 1.0324-4.5734.0867s.8724-2.501 2.9564-3.4942c2.0839-.9932 4.1233-1.0324 4.5734-.0867z" fill="url(#i)"/><path d="m19.9156 23.9282c.4424.9167-.8698 2.5107-2.9538 3.5039-2.0839.9932-4.1233 1.0323-4.5734.0866s.8699-2.5107 2.9538-3.5039c2.084-.9932 4.1259-1.0227 4.5734-.0866z" fill="url(#j)"/><path d="m17.2015 38.7973c1.6382 1.6316 2.0634 3.8367.9754 4.915s-3.2999.6668-4.9257-.9577c-1.6259-1.6246-2.0634-3.8368-.9754-4.9151s3.2902-.6642 4.9257.9578z" fill="url(#k)"/><path d="m31.7525 46.9696c1.6381 1.6317 2.0634 3.8367.9754 4.9151-1.088 1.0783-3.2999.6668-4.9258-.9578-1.6258-1.6245-2.0633-3.8367-.9753-4.915 1.088-1.0784 3.2999-.6668 4.9257.9577z" fill="url(#l)"/><path d="m36.9339 37.5993c1.6381 1.6316 2.0633 3.8367.9753 4.915s-3.2999.6668-4.9257-.9577c-1.6259-1.6246-2.0633-3.8368-.9754-4.9151 1.088-1.0783 3.2999-.6668 4.9258.9578z" fill="url(#m)"/><path d="m45.7617 55.0905c1.6381 1.6316 2.0633 3.8367.9754 4.9151-1.088 1.0783-3.2928.6545-4.9284-.9675-1.6355-1.6219-2.0607-3.827-.9753-4.915s3.3411-.6675 4.9283.9674z" fill="url(#n)"/><path d="m26.8552 55.1977c1.6284 1.6342 2.0607 3.827.9753 4.915s-3.2998.6668-4.9354-.9552c-1.6355-1.6219-2.0633-3.8367-.9753-4.915 1.088-1.0784 3.2973-.6765 4.9354.9552z" fill="url(#o)"/><path d="m54.4146 34.0646c.2785 2.2755 1.5276 4.001 2.7913 3.8487 1.2636-.1522 2.0697-2.1282 1.7913-4.4036-.2785-2.2755-1.5206-4.0133-2.7939-3.8584-1.2733.1548-2.06 2.1256-1.7887 4.4133z" fill="url(#p)"/></g></svg>