<svg fill="none" height="70" viewBox="0 0 70 70" width="70" xmlns="http://www.w3.org/2000/svg" xmlns:xlink="http://www.w3.org/1999/xlink"><linearGradient id="a"><stop offset=".16" stop-color="#f2352f"/><stop offset=".41" stop-color="#ef352f"/><stop offset=".58" stop-color="#e6342f"/><stop offset=".73" stop-color="#d7322f"/><stop offset=".85" stop-color="#c4302f"/></linearGradient><radialGradient id="b" cx="0" cy="0" gradientTransform="matrix(17.28154831 -17.28154831 17.28154831 17.28154831 34.5681 34.5635)" gradientUnits="userSpaceOnUse" r="1" xlink:href="#a"/><radialGradient id="c" cx="0" cy="0" gradientTransform="matrix(1238.40560337 -1238.40560337 517.92036188 517.92036188 1202.41 -1055.13)" gradientUnits="userSpaceOnUse" r="1" xlink:href="#a"/><linearGradient id="d" gradientUnits="userSpaceOnUse" x1="12.0822" x2="24.2789" y1="5.65163" y2="28.1898"><stop offset="0" stop-color="#fff"/><stop offset="1" stop-color="#fff" stop-opacity="0"/></linearGradient><radialGradient id="e" cx="0" cy="0" gradientTransform="matrix(302.52785816 -302.52785816 688.43986927 688.43986927 1085.01 -246.894)" gradientUnits="userSpaceOnUse" r="1" xlink:href="#a"/><radialGradient id="f" cx="0" cy="0" gradientTransform="matrix(45.72343366 -45.72343366 45.72343366 45.72343366 67.4771 57.5194)" gradientUnits="userSpaceOnUse" r="1"><stop offset=".16" stop-color="#f2352f"/><stop offset=".36" stop-color="#ef352f"/><stop offset=".5" stop-color="#e6342f"/><stop offset=".62" stop-color="#d7322f"/><stop offset=".73" stop-color="#c2302f"/><stop offset=".83" stop-color="#a62d2f"/><stop offset=".85" stop-color="#9e2c2f"/></radialGradient><linearGradient id="g"><stop offset=".16" stop-color="#fff"/><stop offset=".38" stop-color="#fcfcfc"/><stop offset=".54" stop-color="#f3f3f3"/><stop offset=".67" stop-color="#e4e4e4"/><stop offset=".78" stop-color="#cfcfcf"/><stop offset=".85" stop-color="#bfbfbf"/></linearGradient><radialGradient id="h" cx="0" cy="0" gradientTransform="matrix(2.64044767 -3.84065446 5.01348069 3.44676501 32.5847 12.7585)" gradientUnits="userSpaceOnUse" r="1" xlink:href="#g"/><radialGradient id="i" cx="0" cy="0" gradientTransform="matrix(24.69209809 -24.69209809 12.03375533 12.03375533 -389.18 1599.4)" gradientUnits="userSpaceOnUse" r="1" xlink:href="#g"/><radialGradient id="j" cx="0" cy="0" gradientTransform="matrix(24.69209809 -24.69209809 12.05977686 12.05977686 -462.168 1682.36)" gradientUnits="userSpaceOnUse" r="1" xlink:href="#g"/><radialGradient id="k" cx="0" cy="0" gradientTransform="matrix(18.85415633 -72.27413161 98.09993031 25.59133373 5579.02 3139.05)" gradientUnits="userSpaceOnUse" r="1" xlink:href="#g"/><radialGradient id="l" cx="0" cy="0" gradientTransform="matrix(18.85415633 -72.27413161 98.09993031 25.59133373 5694.46 3135.53)" gradientUnits="userSpaceOnUse" r="1" xlink:href="#g"/><radialGradient id="m" cx="0" cy="0" gradientTransform="matrix(18.85415633 -72.27413161 98.09993031 25.59133373 5684.85 3071.64)" gradientUnits="userSpaceOnUse" r="1" xlink:href="#g"/><radialGradient id="n" cx="0" cy="0" gradientTransform="matrix(18.86619688 -72.32028694 98.24507288 25.62919708 5816.93 3137.18)" gradientUnits="userSpaceOnUse" r="1" xlink:href="#g"/><radialGradient id="o" cx="0" cy="0" gradientTransform="matrix(18.8836645 -72.38724605 98.16766351 25.6090033 5704.93 3196.84)" gradientUnits="userSpaceOnUse" r="1" xlink:href="#g"/><radialGradient id="p" cx="0" cy="0" gradientTransform="matrix(45.53466982 -33.97030036 64.90881206 87.00545165 -1382.93 -928.585)" gradientUnits="userSpaceOnUse" r="1" xlink:href="#g"/><clipPath id="q"><path d="m0 0h49.0335v48.7258h-49.0335z" transform="matrix(.70710678 -.70710678 .70710678 .70710678 0 34.6719)"/></clipPath><g clip-path="url(#q)"><path d="m56.9516 24.2736 1.8381 17.8713c.0681.3788.0681.7666 0 1.1453-.2717 1.4783-1.069 2.8084-2.2446 3.7449-.366.3217-.7503.6218-1.151.899l-18.1519 10.0437s-3.178 1.4602-7.3238-1.0708l-16.583-9.3795c-.4617-.1788-.8868-.4408-1.254-.773-.5605-.5027-1.0153-1.1119-1.3377-1.7923-.3225-.6803-.5062-1.4181-.5405-2.1702-.0626-.739-.0377-1.4829.0745-2.216l.5096-4.2775 1.735-11.6527c.4312-2.1221 1.5-4.0619 3.0635-5.5601l16.165-12.79799c.5917-.53027 1.3194-.88521 2.1015-1.02498.7194-.13481 1.461-.08956 2.1588.1317.6893.2358 1.334.58619 1.9068 1.03643l14.6819 11.65844s4.0312 3.0578 4.3518 6.1843z" fill="url(#b)"/><path d="m33.8531 5.26225c.0686.29838.086.60624.0515.91046l-.3207 17.23579c-.1374 4.7183-5.1191 8.1311-5.1191 8.1311l-15.9131 11.3321c-.3257.2834-.7452.4357-1.1769.4272-.4317-.0084-.8449-.177-1.1593-.473-.0627-.739-.0377-1.4829.0744-2.216l.4982-4.3118 1.735-11.6528c.4312-2.1221 1.5-4.0619 3.0635-5.5601l16.165-12.79797c.5916-.53027 1.3194-.88521 2.1015-1.02498z" fill="url(#c)"/><path d="m33.8531 5.26225c.0686.29838.086.60624.0515.91046l-.3207 17.23579c-.1374 4.7183-5.1191 8.1311-5.1191 8.1311l-15.9131 11.3321c-.3257.2834-.7452.4357-1.1769.4272-.4317-.0084-.8449-.177-1.1593-.473-.0627-.739-.0377-1.4829.0744-2.216l.4982-4.3118 1.735-11.6528c.4312-2.1221 1.5-4.0619 3.0635-5.5601l16.165-12.79797c.5916-.53027 1.3194-.88521 2.1015-1.02498z" fill="url(#d)"/><path d="m56.9524 24.2731 1.8381 17.8713c.068.3788.068.7666 0 1.1453-.6242.5211-1.6663.6241-3.4529-.5784l-15.8386-11.4179s-4.4148-3.1437-4.5179-7.4498l.3779-17.17848c.0926-.47239.3262-.90563.67-1.24257.6893.2358 1.334.58619 1.9068 1.03643l14.6819 11.65852s4.014 3.0291 4.3347 6.1556z" fill="url(#e)"/><path d="m56.5459 47.0119c-.366.3217-.7503.6218-1.151.899l-18.1519 10.0666s-3.178 1.4602-7.3238-1.0708l-16.583-9.3795c-.4617-.1788-.8868-.4408-1.254-.773-.1665-.6157-.1343-1.2683.0919-1.8646.2262-.5964.6349-1.1061 1.1679-1.4566l16.6402-11.3607c1.4685-.6636 3.0845-.9334 4.689-.7828s3.142.7164 4.4614 1.6418l15.3919 10.4559s2.6226 1.1911 2.0214 3.6247z" fill="url(#f)"/><path d="m30.7495 10.4501c.6814.4638.4008 2.1187-.6528 3.6533s-2.4794 2.3992-3.178 1.9182-.4466-2.0957.6241-3.6246c1.0708-1.5289 2.4852-2.3936 3.2067-1.9469z" fill="url(#h)"/><path d="m24.0442 21.2555c.6814.4638.4008 2.1072-.6585 3.6476-1.0594 1.5403-2.4737 2.3935-3.1723 1.9125s-.4009-2.1072.6585-3.6476c1.0593-1.5403 2.4737-2.3935 3.1723-1.9125z" fill="url(#i)"/><path d="m17.3102 32.3985c.6814.4639.4065 2.113-.6528 3.6533-1.0593 1.5404-2.4737 2.3936-3.1723 1.9126s-.4065-2.113.6528-3.6533c1.0593-1.5404 2.4794-2.3878 3.1723-1.9126z" fill="url(#j)"/><path d="m21.4273 43.9255c1.8095.481 3.0005 1.8552 2.6741 3.052s-2.0442 1.8037-3.8422 1.3227-3.0005-1.8552-2.6741-3.052 2.0385-1.798 3.8422-1.3227z" fill="url(#k)"/><path d="m34.9411 43.7651c1.8094.481 3.0005 1.8552 2.6741 3.052s-2.0443 1.8037-3.8423 1.3227-3.0005-1.8552-2.6741-3.052 2.0442-1.8037 3.8423-1.3227z" fill="url(#l)"/><path d="m34.7807 35.0956c1.8095.481 3.0005 1.8553 2.6741 3.0521-.3264 1.1967-2.0442 1.8037-3.8422 1.3227s-3.0005-1.8553-2.6741-3.052c.3263-1.1968 2.0442-1.8038 3.8422-1.3228z" fill="url(#m)"/><path d="m48.054 43.7878c1.8094.481 3.0005 1.8553 2.6741 3.0521s-2.0443 1.7923-3.848 1.317-2.9948-1.8495-2.6741-3.052c.3206-1.2025 2.0728-1.821 3.848-1.3171z" fill="url(#n)"/><path d="m34.8379 51.5182c1.8038.4867 2.9948 1.8495 2.6742 3.052-.3207 1.2025-2.0443 1.8038-3.848 1.3285-1.8038-.4753-3.0005-1.8553-2.6741-3.052.3263-1.1968 2.0385-1.8095 3.8479-1.3285z" fill="url(#o)"/><path d="m45.6089 25.5385c1.1166 1.4831 2.6913 2.1874 3.5159 1.569.8245-.6184.5898-2.3305-.5268-3.8136s-2.6913-2.1989-3.5216-1.5747c-.8303.6241-.5841 2.3248.5325 3.8193z" fill="url(#p)"/></g></svg>