<svg fill="none" height="84" viewBox="0 0 77 84" width="77" xmlns="http://www.w3.org/2000/svg" xmlns:xlink="http://www.w3.org/1999/xlink"><linearGradient id="a"><stop offset=".16" stop-color="#f2352f"/><stop offset=".41" stop-color="#ef352f"/><stop offset=".58" stop-color="#e6342f"/><stop offset=".73" stop-color="#d7322f"/><stop offset=".85" stop-color="#c4302f"/></linearGradient><radialGradient id="b" cx="0" cy="0" gradientTransform="matrix(51.8089 0 0 51.8716 38.7344 25.3434)" gradientUnits="userSpaceOnUse" r="1" xlink:href="#a"/><radialGradient id="c" cx="0" cy="0" gradientTransform="matrix(9128.9 0 0 7712.39 -349.124 3156.79)" gradientUnits="userSpaceOnUse" r="1" xlink:href="#a"/><radialGradient id="d" cx="0" cy="0" gradientTransform="matrix(47.8481 0 0 47.906 59.4864 22.9287)" gradientUnits="userSpaceOnUse" r="1"><stop offset=".16" stop-color="#f2352f"/><stop offset=".36" stop-color="#ef352f"/><stop offset=".5" stop-color="#e6342f"/><stop offset=".62" stop-color="#d7322f"/><stop offset=".73" stop-color="#c2302f"/><stop offset=".83" stop-color="#a62d2f"/><stop offset=".85" stop-color="#9e2c2f"/></radialGradient><radialGradient id="e" cx="0" cy="0" gradientTransform="matrix(157.996 0 0 380.721 486.949 2950.84)" gradientUnits="userSpaceOnUse" r="1" xlink:href="#a"/><linearGradient id="f"><stop offset=".16" stop-color="#fff"/><stop offset=".38" stop-color="#fcfcfc"/><stop offset=".54" stop-color="#f3f3f3"/><stop offset=".67" stop-color="#e4e4e4"/><stop offset=".78" stop-color="#cfcfcf"/><stop offset=".85" stop-color="#bfbfbf"/></linearGradient><radialGradient id="g" cx="0" cy="0" gradientTransform="matrix(13.5154 0 0 13.5317 46.872 .206827)" gradientUnits="userSpaceOnUse" r="1" xlink:href="#f"/><radialGradient id="h" cx="0" cy="0" gradientTransform="matrix(160.022 0 0 160.216 791.951 313.956)" gradientUnits="userSpaceOnUse" r="1" xlink:href="#f"/><radialGradient id="i" cx="0" cy="0" gradientTransform="matrix(160.022 0 0 160.216 437.413 473.466)" gradientUnits="userSpaceOnUse" r="1" xlink:href="#f"/><radialGradient id="j" cx="0" cy="0" gradientTransform="matrix(160.022 0 0 160.216 244.715 151.913)" gradientUnits="userSpaceOnUse" r="1" xlink:href="#f"/><radialGradient id="k" cx="0" cy="0" gradientTransform="matrix(55.0170224 -23.62023179 46.63521414 108.62427788 1647.32 6858.9)" gradientUnits="userSpaceOnUse" r="1" xlink:href="#f"/><radialGradient id="l" cx="0" cy="0" gradientTransform="matrix(54.81440631 -23.53324345 46.41113536 108.10234619 1800.2 7193.91)" gradientUnits="userSpaceOnUse" r="1" xlink:href="#f"/><radialGradient id="m" cx="0" cy="0" gradientTransform="matrix(57.29474195 93.76814659 -61.63890122 37.66294918 4898.57 -8955.1)" gradientUnits="userSpaceOnUse" r="1" xlink:href="#f"/><radialGradient id="n" cx="0" cy="0" gradientTransform="matrix(57.15552897 93.54031167 -61.41285827 37.52483114 4868.63 -8878.72)" gradientUnits="userSpaceOnUse" r="1" xlink:href="#f"/><radialGradient id="o" cx="0" cy="0" gradientTransform="matrix(57.22383197 93.65209584 -61.38777083 37.50950207 4855.77 -8842.14)" gradientUnits="userSpaceOnUse" r="1" xlink:href="#f"/><radialGradient id="p" cx="0" cy="0" gradientTransform="matrix(57.15396478 93.53775173 -61.47207828 37.56101608 5042.83 -8891.66)" gradientUnits="userSpaceOnUse" r="1" xlink:href="#f"/><radialGradient id="q" cx="0" cy="0" gradientTransform="matrix(57.15552897 93.54031167 -61.38785616 37.50955421 5042.17 -8928.76)" gradientUnits="userSpaceOnUse" r="1" xlink:href="#f"/><radialGradient id="r" cx="0" cy="0" gradientTransform="matrix(57.14875081 93.52921859 -61.97348575 37.8673889 5143.74 -9027.83)" gradientUnits="userSpaceOnUse" r="1" xlink:href="#f"/><linearGradient id="s" gradientUnits="userSpaceOnUse" x1="8.86007" x2="34.8429" y1="-27.4111" y2="24.5011"><stop offset="0" stop-color="#fff"/><stop offset="1" stop-color="#fff" stop-opacity="0"/></linearGradient><clipPath id="t"><path d="m0 0h77v84h-77z"/></clipPath><g clip-path="url(#t)"><path d="m76.5586 45.4437c-.0657.2161-.1314.4416-.2159.6671l-7.0392 14.0956s-.9386 3.148-6.1195 5.563l-35.3839 17.4503c-.558.4423-1.2337.7103-1.9428.7705-.8534.0584-1.7002-.1843-2.3934-.6859-1.1519-.8486-2.085-1.96-2.7218-3.242l-18.14252-34.5059s-.21587-.451-.48806-1.1088c-.69411-1.6464-.99615-3.4319-.88225-5.2154l-1.22952241-16.4918s-.55375459-4.8206 7.22696241-7.6021c7.78069-2.7816 36.51019-14.837948 36.51019-14.837948 1.8175-.492154 3.7436-.3994302 5.5055.265043 1.7619.664475 3.2704 1.867025 4.312 3.437385 3.6979 5.57243 21.5307 33.02112 21.5307 33.02112.938 1.1635 1.5653 2.5465 1.8231 4.0193.2577 1.4728.1374 2.987-.3496 4.4005z" fill="url(#b)"/><path d="m74.8601 39.0635c0 3.4205-3.5197 5.3845-3.5197 5.3845l-36.3131 17.2529c-7.227 2.5936-12.4172-4.2663-12.4172-4.2663l-7.6587-13.823-10.86864-19.574c-2.37457-4.2756 1.87714-6.4933 1.87714-6.4933s26.2799-10.57168 34.4548-14.09556c8.1749-3.5238851 10.5682 0 10.5682 0l14.7637 22.02666z" fill="url(#c)"/><path d="m76.5589 45.444c-.0657.2161-.1314.4416-.2159.6672l-7.0392 14.0955s-.9386 3.148-6.1195 5.563l-35.384 17.4503c-.5579.4423-1.2336.7104-1.9428.7706-.4599-.6954-.6194-2.2365.0939-5.4127l1.1075-7.6022c1.725-3.1676 4.4661-5.6605 7.7807-7.076l37.2423-17.6006s2.919-1.6821 4.477-.8551z" fill="url(#d)"/><path d="m24.8345 74.3117-1.3703 8.993c-1.1519-.8486-2.085-1.96-2.7219-3.242l-18.14248-34.5059s-.21587-.4511-.48806-1.1088l-.61945-17.253s.55375-1.6727 3.75427 2.9695l17.83272 31.9029c1.4311 3.9143 2.0289 8.085 1.7552 12.2443z" fill="url(#e)" opacity=".2"/><path d="m45.0324 17.7323c3.0687 0 5.5563-2.4907 5.5563-5.5631 0-3.07234-2.4876-5.563-5.5563-5.563s-5.5563 2.49066-5.5563 5.563c0 3.0724 2.4876 5.5631 5.5563 5.5631z" fill="url(#g)"/><path d="m60.4061 41.4786c3.0687 0 5.5564-2.4906 5.5564-5.563s-2.4877-5.5631-5.5564-5.5631c-3.0686 0-5.5563 2.4907-5.5563 5.5631s2.4877 5.563 5.5563 5.563z" fill="url(#h)"/><path d="m32.8029 53.9015c3.0687 0 5.5563-2.4907 5.5563-5.5631s-2.4876-5.563-5.5563-5.563-5.5563 2.4906-5.5563 5.563 2.4876 5.5631 5.5563 5.5631z" fill="url(#i)"/><path d="m17.7952 28.8583c3.0687 0 5.5563-2.4907 5.5563-5.5631s-2.4876-5.563-5.5563-5.563-5.5563 2.4906-5.5563 5.563 2.4876 5.5631 5.5563 5.5631z" fill="url(#j)"/><path d="m7.02047 35.2202c1.08874 2.5466 1.42662 4.8488.69454 5.1871s-2.1587-1.5129-3.24744-4.0595-1.39847-4.8771-.71331-5.1778c.68515-.3007 2.17747 1.513 3.26621 4.0502z" fill="url(#k)"/><path d="m19.9914 70.4779c1.0888 2.5466 1.3985 4.8488.6946 5.1495s-2.1587-1.5129-3.2475-4.0501c-1.0887-2.5372-1.3984-4.8488-.6945-5.1495.7039-.3008 2.1587 1.5035 3.2474 4.0501z" fill="url(#l)"/><path d="m39.1288 67.3767c-2.3558 1.4472-4.5896 2.0862-4.9931 1.4284-.4036-.6578 1.1919-2.3587 3.5477-3.7588 2.3558-1.4002 4.5521-2.0862 4.9932-1.466s-1.1826 2.3493-3.5478 3.7964z" fill="url(#m)"/><path d="m38.209 72.5733c-2.3558 1.4378-4.5989 2.0861-4.9931 1.4284-.3942-.6578 1.1826-2.3587 3.5384-3.7588 2.3558-1.4002 4.5896-2.0768 4.9931-1.4284.4036.6484-1.1826 2.3117-3.5384 3.7588z" fill="url(#n)"/><path d="m37.0921 77.394c-2.3651 1.4471-4.5895 2.0861-4.9931 1.4283s1.192-2.3586 3.5478-3.7588c2.3558-1.4001 4.5895-2.0767 4.9931-1.4189s-1.2201 2.3022-3.5478 3.7494z" fill="url(#o)"/><path d="m61.0068 65.892c-2.3558 1.4472-4.5896 2.0862-4.9932 1.4284-.4035-.6578 1.1826-2.3587 3.5384-3.7588 2.3558-1.4002 4.599-2.0862 4.9932-1.4284s-1.192 2.3211-3.5384 3.7588z" fill="url(#p)"/><path d="m63.0341 60.329c-2.3558 1.4472-4.5896 2.0862-4.9932 1.4284-.4035-.6578 1.1826-2.3587 3.5384-3.7588 2.3558-1.4002 4.599-2.0768 4.9932-1.419s-1.1826 2.3023-3.5384 3.7494z" fill="url(#q)"/><path d="m65.2585 54.5779c-2.3745 1.4471-4.5895 2.0861-4.9931 1.4284-.4036-.6578 1.1826-2.3587 3.5384-3.8058 2.3558-1.4472 4.5989-2.0768 4.9931-1.419s-1.2201 2.3493-3.5384 3.7964z" fill="url(#r)"/><path d="m65.7466 25.4754c-14.5102 3.3453-30.1468 10.6656-45.9147 16.5575-1.6769.6265-3.3037 1.1527-4.8805 1.5787l-10.86864-19.574c-2.37457-4.2756 1.87714-6.4933 1.87714-6.4933s26.2799-10.57168 34.4548-14.09556c8.1749-3.5238848 10.5682 0 10.5682 0z" fill="url(#s)"/></g></svg>